<?xml version="1.0" encoding="UTF-8" standalone="no"?>
<svg
   id="Layer_1"
   version="1.1"
   viewBox="0 0 500 500"
   sodipodi:docname="nik-X-h4S1B0T7E-unsplash.svg"
   width="500"
   height="500"
   inkscape:version="1.4.2 (ebf0e940, 2025-05-08)"
   xmlns:inkscape="http://www.inkscape.org/namespaces/inkscape"
   xmlns:sodipodi="http://sodipodi.sourceforge.net/DTD/sodipodi-0.dtd"
   xmlns="http://www.w3.org/2000/svg"
   xmlns:svg="http://www.w3.org/2000/svg">
  <sodipodi:namedview
     id="namedview78"
     pagecolor="#505050"
     bordercolor="#eeeeee"
     borderopacity="1"
     inkscape:showpageshadow="0"
     inkscape:pageopacity="0"
     inkscape:pagecheckerboard="0"
     inkscape:deskcolor="#505050"
     inkscape:zoom="0.61044518"
     inkscape:cx="397.25107"
     inkscape:cy="397.25107"
     inkscape:window-width="1280"
     inkscape:window-height="772"
     inkscape:window-x="0"
     inkscape:window-y="28"
     inkscape:window-maximized="0"
     inkscape:current-layer="Layer_1" />
  <!-- Generator: Adobe Illustrator 30.0.0, SVG Export Plug-In . SVG Version: 2.1.1 Build 123)  -->
  <defs
     id="defs2">
    <clipPath
       id="clippath">
      <rect
         width="2000"
         height="1500"
         style="fill:none"
         id="rect1"
         x="0"
         y="0" />
    </clipPath>
    <clipPath
       id="clippath-1">
      <rect
         x="543.34698"
         y="1182.365"
         width="318.16"
         height="64.449997"
         style="fill:none"
         id="rect2" />
    </clipPath>
  </defs>
  <g
     clip-path="url(#clippath)"
     id="g78"
     transform="matrix(0.40996546,0,0,0.40996546,-136.36586,-42.140338)">
    <rect
       x="-53.338001"
       y="-48.604"
       width="2108.999"
       height="1584.5129"
       style="display:none;fill:#af8864"
       id="rect3" />
    <path
       d="m 980.276,231.137 c 6.56,-16.001 -33.192,-28.556 -52.31,-32.297 -18.701,-3.659 -34.942,-6.708 -49.783,-8.975 -0.105,-4.486 -0.409,-8.609 -0.625,-11.096 2.862,-5.328 -12.065,-12.359 -26.039,-12.948 -23.637,-0.997 -49.735,-1.198 -67.634,1.029 -7.389,0.919 -23.906,4.624 -24.579,10.347 -0.064,0.542 0.003,1.048 0.165,1.527 -0.842,4.292 0.076,10.215 0.569,15.652 -21.758,4.51 -55.001,8.183 -74.019,14.694 -15.509,5.31 -23.627,3.062 -32.116,17.253 0,0 -0.125,0.775 -0.032,2.093 l -12.865,5.718 c -14.786,2.997 -17.058,4.888 -19.949,19.067 -3.855,18.909 -5.444,41.331 -6.217,60.611 -2.652,66.123 -1.573,133.6 -1.455,199.664 0.127,70.803 -1.535,141.367 -1.535,212.009 0,18.847 -1.644,37.172 21.483,38.063 6.128,0.236 11.07,0.179 15.119,-0.487 108.942,48.779 245.077,38.04 292.818,15.49 25.74,-12.158 34.792,-12.685 39.079,-42.621 6.627,-46.277 6.389,-174.067 6.694,-220.976 0.752,-115.769 -4.516,-172.192 -6.769,-283.817 z"
       style="fill:#3d3d3d"
       id="path3" />
    <path
       d="m 604.858,220.642 c 8.489,-14.191 16.607,-11.943 32.116,-17.253 20.625,-7.061 57.994,-10.784 79.284,-15.857 56.316,-13.419 92.072,-8.184 162.66,5.627 21.671,4.24 69.864,19.804 47.059,38.875 -21.049,17.602 -47.428,20.889 -75.704,21.483 -43.714,0.919 -86.592,-2.099 -130.626,-0.005 -129.222,6.144 -114.79,-32.87 -114.79,-32.87 z"
       id="path4" />
    <path
       d="m 710.472,199.138 c 2.867,-7.408 -3.374,-23.954 1.611,-29.959 2.864,-3.45 18.913,-3.482 59.418,-4.665 30.589,-0.893 56.778,6.138 56.778,6.138 0,0 1.814,16.627 0.276,26.853 -20.507,2.226 -42.117,0.647 -62.839,1.672 -18.336,0.907 -36.903,1.358 -55.243,1.495"
       id="path5" />
    <path
       d="m 734.838,161.169 c -7.389,0.919 -23.906,4.624 -24.579,10.347 -0.911,7.741 22.483,8.842 32.219,9.351 22.433,1.172 48.99,-0.003 71.361,-2.54 30.369,-3.443 8.534,-17.348 -11.367,-18.187 -23.637,-0.997 -49.735,-1.198 -67.634,1.029 z"
       id="path6" />
    <path
       d="m 591.961,228.453 c -14.786,2.997 -17.058,4.888 -19.949,19.067 -3.855,18.909 -5.444,41.33 -6.217,60.611 -2.652,66.123 -1.573,133.6 -1.455,199.664 0.127,70.803 -1.535,141.367 -1.535,212.009 0,18.847 -1.644,37.172 21.483,38.063 21.699,0.836 28.54,-1.987 33.454,-22.641 8.911,-37.458 -5.465,-81.117 -5.832,-119.347 -0.739,-76.855 6.501,-152.728 13.855,-229.104 2.476,-25.717 1.143,-51.607 -1.472,-77.256 -0.902,-8.851 -1.506,-59.462 -9.351,-63.291 -22.088,-10.779 -23.522,87.314 -24.067,95.98 -2.678,42.59 -4.54,85.972 -4.54,129.42 0,55.972 -7.417,189.544 -7.417,212.58 0,9.297 0.011,36.088 1.535,45.269 2.898,17.458 1.557,20.074 18.319,27.622 109.047,49.105 245.621,38.363 293.454,15.77 25.74,-12.158 34.792,-12.685 39.079,-42.621 6.627,-46.277 6.389,-174.067 6.694,-220.976 0.767,-118.159 -4.736,-174.488 -6.905,-290.794 -64.041,4.459 -96.334,16.692 -161.751,14.834 -57.37,-1.629 -106.694,-10.275 -163.57,-10.997"
       id="path7" />
    <path
       d="m 569.71,481.651 c 2.526,25.294 -6.905,238.62 8.44,265.474 4.804,8.408 30.287,3.115 39.933,4.262 17.531,2.084 17.052,-13.403 19.913,-28.509 6.418,-33.887 2.886,-68.504 6.174,-102.784 3.856,-40.207 10.693,-329.567 8.149,-382.946 -27.11,-4.092 -42.455,-4.092 -70.588,3.581 0,0 -14.867,212.42 -12.021,240.922 z"
       style="fill:#ffffff"
       id="path8" />
    <path
       d="m 929.046,415.666 c -62.404,15.345 -78.041,18.296 -135.039,20.46 -80.819,3.069 -116.417,-6.578 -124.806,0.75 -8.902,7.775 -6.141,35.276 -6.141,46.53 0,21.069 0,42.138 0,63.206 0,43.68 -5.875,89.092 -5.882,132.822 -0.003,15.854 -0.697,31.786 -1.537,47.684 -0.744,14.087 -5.325,34.519 10.596,40.72 13.403,5.22 29.346,5.502 43.269,8.421 17.19,3.604 46.707,6.235 64.383,5.308 32.002,-1.679 102.302,-5.115 138.108,-28.986 14.374,-9.582 14.82,-30.412 15.356,-46.413 3.074,-91.858 1.695,-290.502 1.695,-290.502 z"
       style="fill:#38aa18"
       id="path9" />
    <path
       d="m 689.098,382.778 c -1.358,0 -2.574,-0.892 -2.968,-2.216 -0.422,-1.424 0.226,-2.948 1.544,-3.631 4.076,-2.113 9.047,-2.923 14.262,-3.121 7.254,-2.335 14.244,-5.904 19.987,-10.316 7.441,-5.718 16.223,-15.467 15.801,-29.44 -0.358,-11.845 -10.557,-24.747 -22.271,-28.174 -5.923,-1.734 -14.407,-1.714 -21.191,8.211 -0.965,1.412 -2.892,1.775 -4.305,0.81 -1.413,-0.965 -1.775,-2.893 -0.81,-4.305 6.828,-9.993 17.051,-13.879 28.045,-10.662 14.296,4.183 26.285,19.405 26.724,33.933 0.562,18.621 -12.256,32.288 -27.448,40.417 0.002,0 0.005,0 0.008,0 3.321,0.224 6.458,0.435 9.163,0.435 h 36.654 c 1.711,0 3.098,1.387 3.098,3.098 0,1.711 -1.387,3.098 -3.098,3.098 h -36.654 c -2.913,0 -6.151,-0.218 -9.58,-0.449 -4.329,-0.292 -8.938,-0.603 -13.253,-0.485 -4.638,1.436 -9.2,2.369 -13.402,2.785 -0.103,0.01 -0.206,0.015 -0.307,0.015 z"
       style="fill:#ffffff"
       id="path10" />
    <path
       d="m 798.724,381.184 c -0.276,0 -0.551,-0.007 -0.826,-0.02 -4.92,-0.238 -12.021,-2.738 -17.903,-13.299 -8.66,-15.548 -7.957,-48.721 5.181,-63.835 3.994,-4.596 10.57,-9.162 20.424,-7.705 l 0.072,-0.287 c 19.053,4.773 19.91,6.562 23.284,24.417 0.253,1.341 0.526,2.784 0.829,4.339 2.939,15.118 0.027,29.151 -8.653,41.709 -6.479,9.375 -14.601,14.68 -22.408,14.68 z m 3.314,-78.906 c -4.741,0 -8.82,1.942 -12.187,5.815 -11.11,12.782 -11.936,43.304 -4.444,56.756 2.482,4.458 6.717,9.832 12.79,10.126 5.886,0.296 12.374,-4.087 17.839,-11.995 7.697,-11.135 10.276,-23.585 7.668,-37.004 -0.305,-1.567 -0.58,-3.021 -0.834,-4.372 -1.456,-7.706 -2.258,-11.95 -4.287,-14.128 -1.429,-1.534 -3.838,-2.562 -8.184,-3.797 l -0.115,0.297 c -2.935,-1.133 -5.687,-1.699 -8.245,-1.699 z"
       style="fill:#ffffff"
       id="path11" />
    <path
       d="m 875.546,379.667 c -0.276,0 -0.551,-0.006 -0.826,-0.02 -4.92,-0.238 -12.021,-2.738 -17.903,-13.299 -8.66,-15.548 -7.957,-48.721 5.181,-63.835 3.995,-4.596 10.572,-9.165 20.424,-7.704 l 0.072,-0.288 c 19.053,4.773 19.91,6.562 23.284,24.419 0.253,1.34 0.526,2.783 0.828,4.338 2.939,15.118 0.027,29.151 -8.653,41.71 -6.479,9.375 -14.601,14.679 -22.407,14.679 z m 3.314,-78.905 c -4.741,0 -8.819,1.942 -12.187,5.815 -11.11,12.783 -11.936,43.305 -4.444,56.757 2.482,4.458 6.717,9.833 12.79,10.126 5.876,0.296 12.374,-4.087 17.838,-11.994 7.697,-11.136 10.276,-23.586 7.668,-37.005 -0.305,-1.567 -0.579,-3.021 -0.834,-4.371 -1.456,-7.706 -2.258,-11.951 -4.287,-14.128 -1.429,-1.534 -3.839,-2.562 -8.185,-3.797 l -0.115,0.297 c -2.935,-1.133 -5.687,-1.699 -8.245,-1.699 z"
       style="fill:#ffffff"
       id="path12" />
    <path
       d="m 702.222,592.09 c -1.223,0 -2.378,-0.019 -3.456,-0.049 -1.923,-0.055 -3.438,-1.66 -3.383,-3.583 0.055,-1.923 1.636,-3.441 3.583,-3.383 8.397,0.244 28.866,-0.198 37.561,-9.444 3.064,-3.259 4.332,-7.302 3.875,-12.358 -1.127,-12.463 -18.875,-14.428 -35.421,-15.29 -1.083,-0.057 -2.105,-0.11 -3.049,-0.167 -1.666,-0.102 -3.026,-1.37 -3.244,-3.025 -0.217,-1.655 0.77,-3.232 2.353,-3.759 1.631,-0.544 3.452,-1.085 5.379,-1.659 15.111,-4.497 27.481,-9.167 25.775,-20.819 -1.773,-12.108 -19.136,-14.805 -29.127,-14.492 -1.919,0.047 -3.531,-1.45 -3.592,-3.374 -0.061,-1.923 1.45,-3.532 3.374,-3.592 3.596,-0.115 12.881,-0.006 21.363,3.427 8.613,3.485 13.758,9.372 14.878,17.021 1.979,13.514 -8.558,20.488 -19.256,24.717 12.762,1.837 26.257,6.556 27.508,20.384 0.638,7.057 -1.292,13.032 -5.739,17.761 -9.297,9.888 -27.436,11.686 -39.382,11.686 z"
       id="path13" />
    <path
       d="m 764.926,590.438 c -3.182,0 -6.545,-0.152 -10.092,-0.456 -1.917,-0.165 -3.338,-1.852 -3.174,-3.77 0.165,-1.917 1.84,-3.338 3.77,-3.174 18.002,1.544 30.442,-0.967 36.967,-7.461 4.145,-4.125 5.936,-10.067 5.322,-17.661 -1.63,-20.164 -30.738,-19.113 -34.049,-18.931 -1,0.064 -1.973,-0.319 -2.675,-1.031 -0.703,-0.711 -1.065,-1.69 -0.997,-2.688 0.452,-6.563 0.563,-13.413 0.671,-20.037 0.067,-4.147 0.137,-8.435 0.289,-12.65 0.066,-1.833 1.542,-3.301 3.376,-3.357 5.783,-0.175 11.453,0.141 16.935,0.448 4.164,0.233 8.47,0.475 12.751,0.491 1.924,0.008 3.479,1.574 3.471,3.499 -0.008,1.92 -1.566,3.471 -3.484,3.471 h -0.014 c -4.463,-0.018 -8.861,-0.264 -13.114,-0.502 -4.461,-0.25 -8.725,-0.489 -13.056,-0.489 h -0.002 c -0.083,3.078 -0.133,6.179 -0.183,9.204 -0.089,5.451 -0.18,11.052 -0.459,16.577 17.147,0.022 35.961,6.562 37.487,25.435 0.787,9.732 -1.687,17.525 -7.352,23.163 -6.629,6.598 -17.5,9.921 -32.388,9.921 z"
       id="path14" />
    <path
       d="m 851.297,587.95 c -0.016,0 -0.032,0 -0.048,0 -1.924,-0.026 -3.463,-1.607 -3.437,-3.532 l 0.005,-0.385 c 0.211,-15.145 -1.362,-24.284 -4.676,-27.161 -0.736,-0.64 -1.503,-0.843 -2.562,-0.677 -2.668,0.415 -4.051,3.772 -4.748,7.957 0.405,4.94 0.037,10.25 -0.255,14.452 -0.125,1.798 -0.232,3.352 -0.232,4.326 0,1.924 -1.56,3.484 -3.484,3.485 v 0 c -1.924,0 -3.484,-1.559 -3.485,-3.483 0,-0.889 -0.034,-1.991 -0.07,-3.242 -0.128,-4.312 -0.303,-10.231 0.516,-15.711 -0.283,-2.994 -0.901,-5.58 -2.103,-6.931 -0.463,-0.521 -0.939,-0.746 -1.646,-0.78 -1.016,-0.042 -1.466,0.279 -1.81,0.639 -3.293,3.445 -2.079,16.46 -1.561,22.018 0.172,1.85 0.309,3.311 0.342,4.413 0.059,1.924 -1.453,3.531 -3.376,3.589 -1.912,0.083 -3.531,-1.453 -3.589,-3.376 -0.027,-0.884 -0.161,-2.318 -0.316,-3.979 -1.026,-10.999 -1.604,-22.181 3.462,-27.48 1.871,-1.957 4.356,-2.923 7.182,-2.784 2.565,0.123 4.82,1.198 6.52,3.11 0.27,0.303 0.522,0.625 0.759,0.963 1.633,-2.123 3.843,-3.606 6.824,-4.071 3.083,-0.48 5.918,0.316 8.204,2.301 6.592,5.726 7.244,20.387 7.075,32.521 l -0.005,0.383 c -0.026,1.908 -1.581,3.438 -3.483,3.438 z"
       id="path15" />
    <path
       d="m 900.34,588.109 c -0.016,0 -0.032,0 -0.048,0 -1.924,-0.026 -3.463,-1.607 -3.437,-3.532 l 0.005,-0.385 c 0.211,-15.145 -1.362,-24.283 -4.676,-27.161 -0.736,-0.64 -1.505,-0.845 -2.562,-0.677 -2.668,0.415 -4.051,3.772 -4.748,7.957 0.405,4.94 0.037,10.25 -0.255,14.452 -0.125,1.798 -0.232,3.352 -0.232,4.326 0,1.924 -1.56,3.484 -3.484,3.485 v 0 c -1.924,0 -3.484,-1.559 -3.485,-3.483 0,-0.889 -0.034,-1.991 -0.07,-3.242 -0.128,-4.312 -0.303,-10.231 0.516,-15.711 -0.283,-2.994 -0.901,-5.579 -2.104,-6.931 -0.462,-0.52 -0.939,-0.746 -1.646,-0.78 -1.02,-0.046 -1.466,0.279 -1.81,0.639 -3.293,3.445 -2.079,16.46 -1.561,22.018 0.172,1.85 0.309,3.311 0.342,4.413 0.059,1.924 -1.453,3.531 -3.376,3.589 -1.924,0.079 -3.531,-1.453 -3.589,-3.376 -0.027,-0.884 -0.161,-2.318 -0.316,-3.979 -1.026,-10.999 -1.604,-22.181 3.462,-27.48 1.871,-1.957 4.355,-2.925 7.182,-2.784 2.565,0.123 4.82,1.198 6.521,3.11 0.269,0.303 0.522,0.624 0.759,0.963 1.633,-2.123 3.842,-3.606 6.823,-4.071 3.079,-0.481 5.918,0.316 8.205,2.301 6.592,5.726 7.244,20.387 7.075,32.521 l -0.005,0.383 c -0.026,1.908 -1.581,3.438 -3.483,3.438 z"
       id="path16" />
    <path
       d="m 625.06,366.776 c -0.019,0 -0.038,0 -0.057,0 -1.068,-0.031 -1.91,-0.922 -1.879,-1.991 0.185,-6.436 -1.077,-11.568 -3.375,-13.729 -1.096,-1.03 -2.469,-1.456 -4.192,-1.299 -4.218,0.381 -4.905,6.81 -5.217,12.805 l -0.064,1.159 c -0.056,0.926 -0.761,1.682 -1.68,1.802 -0.918,0.121 -1.795,-0.427 -2.088,-1.307 -0.205,-0.614 -0.412,-1.31 -0.633,-2.052 -1.616,-5.432 -3.269,-9.883 -7.188,-9.309 -4.146,0.607 -5.062,6.81 -4.949,10.378 0.034,1.069 -0.806,1.962 -1.874,1.996 -1.086,0.039 -1.962,-0.805 -1.996,-1.874 -0.19,-6.026 1.859,-13.395 8.259,-14.332 4.714,-0.692 7.44,2.26 9.178,5.769 0.936,-4.358 3.007,-8.449 7.905,-8.893 2.851,-0.256 5.272,0.528 7.193,2.335 4.296,4.04 4.722,12.173 4.593,16.662 -0.03,1.05 -0.891,1.88 -1.934,1.88 z"
       id="path17" />
    <path
       d="m 609.238,344.514 c -7.009,0 -14.674,-2.766 -17.332,-8.699 -0.437,-0.976 0,-2.121 0.975,-2.558 0.977,-0.438 2.121,-0.001 2.558,0.975 2.119,4.73 9.374,6.856 15.591,6.338 -1.09,-0.993 -1.937,-2.283 -2.486,-3.819 -1.329,-3.718 -0.667,-8.287 1.646,-11.37 2.66,-3.545 6.586,-4.792 10.247,-3.254 4.142,1.74 6.521,6.307 5.787,11.105 -0.901,5.892 -5.988,10.026 -13.606,11.058 -1.092,0.148 -2.228,0.223 -3.38,0.223 z m 8.065,-19.158 c -1.452,0 -2.859,0.807 -4.016,2.35 -1.541,2.053 -1.992,5.237 -1.097,7.742 0.445,1.246 1.427,2.842 3.572,3.368 0.318,0.078 0.598,0.23 0.826,0.434 2.575,-1.079 5.265,-3.045 5.81,-6.604 0.519,-3.39 -1.348,-6.062 -3.46,-6.95 -0.544,-0.229 -1.092,-0.341 -1.634,-0.341 z"
       id="path18" />
    <path
       d="m 617.063,316.205 c -2.463,0 -5.762,-1.142 -9.476,-5.42 -3.097,-3.567 -2.597,-7.147 -1.097,-9.308 1.559,-2.245 4.304,-3.191 6.683,-2.302 1.716,0.642 5.53,3.193 4.666,13.082 0.019,-0.004 0.038,-0.008 0.057,-0.012 1.699,-0.368 3.117,-1.945 3.793,-4.22 0.694,-2.334 0.609,-5.964 -1.913,-8.513 -0.752,-0.76 -0.746,-1.986 0.014,-2.738 0.76,-0.752 1.986,-0.745 2.738,0.014 3.102,3.135 4.203,7.863 2.872,12.339 -1.084,3.651 -3.584,6.231 -6.686,6.902 -0.496,0.107 -1.048,0.175 -1.65,0.176 z m -5.738,-13.491 c -0.597,0 -1.228,0.356 -1.654,0.971 -0.868,1.25 -0.554,2.956 0.84,4.562 1.189,1.371 2.376,2.412 3.516,3.1 0.388,-5.521 -0.905,-8.057 -2.21,-8.545 -0.158,-0.059 -0.324,-0.087 -0.492,-0.087 z"
       id="path19" />
    <path
       d="m 608.361,295.16 c -0.488,0 -0.976,-0.183 -1.352,-0.55 -0.765,-0.747 -0.78,-1.972 -0.034,-2.738 1.513,-1.551 3.249,-3.171 5.085,-4.887 2.369,-2.212 4.818,-4.499 6.803,-6.667 0.722,-0.788 1.947,-0.842 2.735,-0.12 0.788,0.722 0.842,1.947 0.12,2.735 -2.087,2.279 -4.592,4.619 -7.015,6.881 -1.803,1.684 -3.507,3.275 -4.957,4.762 -0.379,0.389 -0.882,0.584 -1.386,0.584 z"
       id="path20" />
    <path
       d="m 620.125,295.326 c -0.467,0 -0.936,-0.168 -1.307,-0.508 -2.279,-2.087 -4.619,-4.592 -6.881,-7.015 -1.685,-1.804 -3.275,-3.507 -4.762,-4.958 -0.765,-0.747 -0.78,-1.972 -0.034,-2.738 0.748,-0.765 1.973,-0.779 2.738,-0.034 1.551,1.514 3.172,3.249 4.888,5.086 2.212,2.368 4.499,4.817 6.667,6.802 0.788,0.722 0.842,1.947 0.12,2.735 -0.382,0.417 -0.904,0.628 -1.428,0.628 z"
       id="path21" />
    <path
       d="m 631.146,277.091 c -0.766,0 -1.679,-0.044 -2.778,-0.115 -0.273,-0.018 -0.511,-0.033 -0.695,-0.042 -0.777,-0.037 -1.554,-0.083 -2.331,-0.128 -1.744,-0.103 -3.548,-0.208 -5.314,-0.208 -2.327,0 -4.681,0.045 -6.958,0.088 -2.292,0.043 -4.663,0.089 -7.021,0.089 -1.069,0 -1.936,-0.867 -1.936,-1.936 0,-1.069 0.867,-1.936 1.936,-1.936 2.327,0 4.636,-0.044 6.947,-0.088 2.295,-0.044 4.668,-0.089 7.032,-0.089 1.88,0 3.741,0.109 5.541,0.215 0.763,0.045 1.526,0.09 2.289,0.126 0.2,0.009 0.46,0.026 0.759,0.045 0.728,0.046 2.873,0.184 3.585,0.051 0.785,-0.458 1.808,-0.308 2.428,0.401 0.704,0.805 0.622,2.028 -0.183,2.732 -0.673,0.588 -1.642,0.795 -3.301,0.795 z m 0.754,-3.711 h -10e-4 z"
       id="path22" />
    <path
       d="m 606.759,276.243 h -0.009 c -1.069,-0.005 -1.932,-0.876 -1.927,-1.945 0.024,-5.099 1.995,-9.17 5.407,-11.168 1.835,-1.075 3.839,-1.081 5.642,-0.021 3.475,2.045 5.299,7.422 5.232,10.357 -0.024,1.054 -0.886,1.892 -1.935,1.892 -0.015,0 -0.03,0 -0.045,0 -1.069,-0.024 -1.916,-0.911 -1.891,-1.98 0.05,-2.164 -1.506,-5.86 -3.325,-6.931 -0.596,-0.351 -1.094,-0.343 -1.722,0.024 -3.127,1.832 -3.483,6.097 -3.492,7.846 -0.005,1.066 -0.871,1.927 -1.936,1.927 z"
       id="path23" />
    <path
       d="m 732.06,766.426 c -3.165,0 -6.113,-1.289 -8.52,-3.847 -4.918,-5.229 -6.107,-14.354 -2.494,-19.146 1.84,-2.441 6.342,-5.805 15.825,-0.911 1.141,0.588 1.588,1.989 1,3.129 -0.588,1.141 -1.99,1.589 -3.129,1 -2.771,-1.429 -7.752,-3.385 -9.985,-0.42 -2.294,3.042 -1.22,9.563 2.168,13.165 2.872,3.053 6.613,3.195 10.815,0.409 1.07,-0.708 2.511,-0.417 3.22,0.653 0.709,1.069 0.416,2.511 -0.653,3.22 -2.771,1.836 -5.585,2.748 -8.246,2.748 z"
       id="path24" />
    <path
       d="m 758.357,767.996 c -0.383,0 -0.77,-0.017 -1.16,-0.05 -8.613,-0.735 -13.45,-9.159 -13.627,-16.711 v 0 c -0.071,-3 0.75,-5.397 2.438,-7.126 2.823,-2.891 7.518,-3.225 10.803,-3.225 8.186,0 12.177,3.064 13.775,10.577 0.958,4.505 -0.193,9.148 -3.082,12.42 -2.364,2.679 -5.579,4.115 -9.148,4.115 z m -10.143,-16.87 c 0.132,5.61 3.676,11.704 9.377,12.191 2.528,0.212 4.811,-0.676 6.43,-2.511 1.919,-2.174 2.674,-5.306 2.02,-8.379 -1.125,-5.286 -3.281,-6.897 -9.23,-6.897 -3.833,0 -6.28,0.597 -7.479,1.825 -0.792,0.811 -1.158,2.044 -1.118,3.77 v 0 z"
       id="path25" />
    <path
       d="m 787.089,769.398 c -1.731,0 -3.292,-0.438 -4.673,-1.315 -4.638,-2.947 -6.546,-10.603 -5.671,-22.754 0.405,-5.624 0.519,-7.339 0.676,-9.7 0.118,-1.777 0.26,-3.918 0.569,-8.358 0.089,-1.28 1.198,-2.25 2.479,-2.156 1.28,0.089 2.245,1.198 2.156,2.479 -0.308,4.432 -0.45,6.57 -0.568,8.344 -0.157,2.367 -0.271,4.087 -0.678,9.726 -0.711,9.879 0.575,16.622 3.529,18.499 1.766,1.122 4.523,0.649 8.196,-1.408 1.119,-0.627 2.535,-0.229 3.163,0.891 0.627,1.119 0.228,2.535 -0.891,3.162 -3.083,1.728 -5.854,2.593 -8.286,2.593 z"
       id="path26" />
    <path
       d="m 828.204,767.557 c -1.267,0 -2.302,-1.017 -2.322,-2.285 l -0.004,-0.245 c -0.012,-0.716 -0.02,-1.416 -0.023,-2.104 -0.045,-2.05 -0.141,-4.144 -0.241,-6.326 -0.325,-7.091 -0.66,-14.425 0.797,-21.217 0.27,-1.255 1.509,-2.053 2.759,-1.784 1.254,0.269 2.053,1.504 1.784,2.759 -0.085,0.399 -0.165,0.801 -0.237,1.207 0.139,-0.15 0.282,-0.292 0.427,-0.426 1.394,-1.289 3.094,-1.879 4.921,-1.705 3.853,0.366 6.806,2.854 7.899,6.653 1.314,4.567 -0.258,9.823 -3.739,12.498 -0.885,0.681 -2.243,1.456 -4.05,1.732 1.906,1.819 3.663,2.958 7.781,5.202 1.127,0.614 1.542,2.025 0.929,3.151 -0.614,1.127 -2.024,1.542 -3.151,0.929 -6.193,-3.375 -7.826,-4.774 -11.148,-8.381 -0.064,1.723 -0.094,3.617 -0.084,5.701 0.017,0.779 0.026,1.553 0.026,2.317 0,1.275 -1.029,2.312 -2.304,2.323 h -0.02 z m 2.859,-16.89 c 1.912,1.02 4.379,1.73 6.331,0.23 1.961,-1.507 2.886,-4.814 2.104,-7.529 -0.397,-1.381 -1.392,-3.077 -3.874,-3.313 -0.501,-0.048 -0.902,0.099 -1.326,0.491 -1.01,0.933 -2.449,3.436 -3.235,10.121 z"
       id="path27" />
    <path
       d="m 808.513,766.184 c -0.384,0 -0.771,-0.017 -1.162,-0.05 -8.613,-0.735 -13.449,-9.159 -13.626,-16.71 v 0 c -0.071,-3 0.75,-5.397 2.438,-7.126 2.823,-2.891 7.518,-3.225 10.803,-3.225 8.186,0 12.177,3.064 13.776,10.576 0.958,4.506 -0.194,9.149 -3.082,12.421 -2.364,2.678 -5.579,4.114 -9.147,4.114 z m -1.547,-22.465 c -3.833,0 -6.279,0.597 -7.479,1.825 -0.792,0.812 -1.158,2.045 -1.118,3.771 v 0 c 0.132,5.61 3.675,11.704 9.377,12.191 2.526,0.21 4.811,-0.675 6.43,-2.51 1.919,-2.174 2.674,-5.307 2.021,-8.38 -1.125,-5.285 -3.281,-6.896 -9.231,-6.896 z"
       id="path28" />
    <path
       d="m 1010.047,1256.643 c 16.001,6.56 28.556,-33.192 32.297,-52.31 3.659,-18.701 6.708,-34.942 8.975,-49.783 4.486,-0.105 8.609,-0.409 11.096,-0.625 5.328,2.862 12.359,-12.065 12.948,-26.039 0.997,-23.637 1.198,-49.735 -1.029,-67.634 -0.919,-7.389 -4.624,-23.906 -10.347,-24.579 -0.542,-0.064 -1.048,0 -1.527,0.165 -4.292,-0.842 -10.215,0.076 -15.652,0.569 -4.51,-21.758 -8.183,-55.001 -14.694,-74.019 -5.31,-15.509 -3.062,-23.627 -17.253,-32.116 0,0 -0.775,-0.125 -2.093,-0.032 l -5.718,-12.865 c -2.997,-14.786 -4.888,-17.058 -19.067,-19.949 -18.909,-3.855 -41.331,-5.444 -60.611,-6.217 -66.123,-2.652 -133.6,-1.573 -199.664,-1.455 -70.803,0.127 -141.367,-1.535 -212.009,-1.535 -18.847,0 -37.172,-1.644 -38.063,21.483 -0.236,6.128 -0.179,11.07 0.487,15.119 -48.779,108.942 -38.04,245.077 -15.49,292.818 12.158,25.74 12.685,34.792 42.621,39.079 46.277,6.627 174.067,6.389 220.976,6.694 115.769,0.752 172.192,-4.516 283.817,-6.769 z"
       style="fill:#3d3d3d"
       id="path29" />
    <path
       d="m 971.148,906.025 c 14.191,8.489 11.943,16.607 17.253,32.116 7.061,20.625 10.784,57.994 15.857,79.284 13.419,56.316 8.184,92.072 -5.627,162.66 -4.24,21.671 -19.804,69.864 -38.875,47.059 -17.602,-21.049 -20.889,-47.428 -21.483,-75.704 -0.919,-43.714 2.099,-86.592 0.005,-130.626 -6.144,-129.222 32.87,-114.79 32.87,-114.79 z"
       id="path30" />
    <path
       d="m 992.653,1011.639 c 7.408,2.867 23.954,-3.374 29.959,1.611 3.45,2.864 3.482,18.913 4.665,59.418 0.893,30.589 -6.138,56.778 -6.138,56.778 0,0 -16.627,1.814 -26.853,0.276 -2.226,-20.507 -0.647,-42.117 -1.672,-62.839 -0.907,-18.336 -1.358,-36.903 -1.495,-55.243"
       id="path31" />
    <path
       d="m 1030.621,1036.005 c -0.919,-7.389 -4.624,-23.906 -10.347,-24.579 -7.741,-0.911 -8.842,22.483 -9.351,32.219 -1.172,22.433 0,48.99 2.54,71.361 3.443,30.369 17.348,8.534 18.187,-11.367 0.997,-23.637 1.198,-49.735 -1.029,-67.634 z"
       id="path32" />
    <path
       d="m 963.337,893.128 c -2.997,-14.786 -4.888,-17.058 -19.067,-19.949 -18.909,-3.855 -41.33,-5.444 -60.611,-6.217 -66.123,-2.652 -133.6,-1.573 -199.664,-1.455 -70.803,0.127 -141.367,-1.535 -212.009,-1.535 -18.847,0 -37.172,-1.644 -38.063,21.483 -0.836,21.699 1.987,28.54 22.641,33.454 37.458,8.911 81.117,-5.465 119.347,-5.832 76.855,-0.739 152.728,6.501 229.104,13.855 25.717,2.476 51.607,1.143 77.256,-1.472 8.851,-0.902 59.462,-1.506 63.291,-9.351 10.779,-22.088 -87.314,-23.522 -95.98,-24.067 -42.59,-2.678 -85.972,-4.54 -129.42,-4.54 -55.972,0 -189.544,-7.417 -212.58,-7.417 -9.297,0 -36.088,0.011 -45.269,1.535 -17.458,2.898 -20.074,1.557 -27.622,18.319 -49.105,109.047 -38.363,245.621 -15.77,293.454 12.158,25.74 12.685,34.792 42.621,39.079 46.277,6.627 174.067,6.389 220.976,6.694 118.159,0.767 174.488,-4.736 290.794,-6.905 -4.459,-64.041 -16.692,-96.334 -14.834,-161.751 1.629,-57.37 10.275,-106.694 10.997,-163.57"
       id="path33" />
    <polygon
       points="858.458,964.006 696.309,964.006 540.298,964.006 540.298,899.555 858.458,899.555 "
       style="fill:#f7410f"
       id="polygon33" />
    <path
       d="m 710.139,870.585 c -25.294,1.284 -238.62,-3.51 -265.474,4.29 -8.408,2.442 -3.115,15.394 -4.262,20.297 -2.084,8.911 13.403,8.667 28.509,10.122 33.887,3.262 68.504,1.467 102.784,3.138 40.207,1.96 329.567,5.435 382.946,4.142 4.092,-13.779 4.092,-21.579 -3.581,-35.879 0,0 -212.42,-7.557 -240.922,-6.11 z"
       style="fill:#ffffff"
       id="path34" />
    <path
       d="m 545.543,1033.317 c -0.849,0 -1.609,-0.557 -1.854,-1.385 -0.264,-0.89 0.141,-1.842 0.965,-2.27 1.985,-1.029 4.377,-1.434 6.879,-1.54 8.512,-2.771 17.119,-9.387 16.842,-18.576 -0.166,-5.493 -4.9,-11.479 -10.339,-13.069 -2.69,-0.79 -6.55,-0.776 -9.646,3.753 -0.602,0.882 -1.808,1.109 -2.69,0.506 -0.883,-0.604 -1.109,-1.809 -0.506,-2.69 3.387,-4.958 8.464,-6.883 13.93,-5.285 7.02,2.054 12.906,9.531 13.122,16.669 0.259,8.563 -5.249,14.979 -12.059,19.014 1.024,0.062 1.989,0.109 2.855,0.109 h 17.551 c 1.069,0 1.936,0.866 1.936,1.936 0,1.07 -0.867,1.936 -1.936,1.936 h -17.551 c -1.41,0 -2.968,-0.104 -4.617,-0.216 -2.044,-0.137 -4.216,-0.279 -6.249,-0.233 -2.229,0.687 -4.419,1.134 -6.439,1.334 -0.064,0.01 -0.128,0.01 -0.192,0.01 z"
       style="fill:#ffffff"
       id="path35" />
    <path
       d="m 598.035,1032.555 c -0.139,0 -0.278,0 -0.417,-0.011 -2.471,-0.119 -6.028,-1.361 -8.946,-6.6 -4.214,-7.567 -3.866,-23.72 2.535,-31.084 2.689,-3.095 6.238,-4.404 10.229,-3.819 l 0.037,-0.149 c 9.352,2.343 9.845,3.374 11.484,12.047 0.122,0.642 0.252,1.332 0.396,2.076 1.431,7.363 0.013,14.198 -4.216,20.315 -3.188,4.613 -7.213,7.224 -11.102,7.225 z m 1.562,-37.795 c -2.127,0 -3.934,0.877 -5.467,2.641 -5.215,6 -5.596,20.337 -2.074,26.659 1.133,2.034 3.05,4.486 5.75,4.617 2.614,0.14 5.659,-1.947 8.147,-5.548 3.614,-5.229 4.825,-11.074 3.6,-17.376 -0.146,-0.751 -0.278,-1.448 -0.4,-2.096 -0.682,-3.606 -1.057,-5.593 -1.939,-6.54 -0.617,-0.662 -1.761,-1.137 -3.751,-1.701 l -0.054,0.139 c -1.372,-0.529 -2.641,-0.795 -3.811,-0.795 z"
       style="fill:#ffffff"
       id="path36" />
    <path
       d="m 634.82,1031.828 c -0.139,0 -0.278,0 -0.417,-0.01 -2.471,-0.12 -6.028,-1.361 -8.946,-6.6 -4.214,-7.567 -3.866,-23.72 2.535,-31.084 2.689,-3.096 6.239,-4.404 10.229,-3.819 l 0.037,-0.149 c 9.352,2.343 9.845,3.374 11.484,12.046 0.122,0.642 0.252,1.332 0.396,2.076 1.431,7.363 0.013,14.198 -4.216,20.315 -3.189,4.614 -7.213,7.225 -11.102,7.225 z m 1.561,-37.794 c -2.127,0 -3.934,0.877 -5.467,2.641 -5.215,6 -5.596,20.337 -2.074,26.659 1.133,2.034 3.05,4.486 5.75,4.616 2.604,0.136 5.658,-1.947 8.147,-5.548 3.614,-5.229 4.825,-11.074 3.6,-17.376 -0.146,-0.751 -0.278,-1.447 -0.4,-2.095 -0.682,-3.606 -1.057,-5.593 -1.939,-6.54 -0.617,-0.662 -1.761,-1.137 -3.751,-1.701 l -0.054,0.139 c -1.372,-0.529 -2.641,-0.795 -3.811,-0.795 z"
       style="fill:#ffffff"
       id="path37" />
    <path
       d="m 780.983,1157.01 c -0.463,0 -0.901,-0.01 -1.309,-0.019 -0.641,-0.019 -1.146,-0.553 -1.128,-1.194 0.018,-0.641 0.558,-1.114 1.194,-1.128 3.218,0.089 11.068,-0.079 14.422,-3.647 1.201,-1.276 1.698,-2.857 1.519,-4.832 -0.441,-4.875 -7.271,-5.638 -13.639,-5.97 l -1.159,-0.063 c -0.556,-0.033 -1.009,-0.456 -1.082,-1.008 -0.072,-0.552 0.257,-1.077 0.785,-1.253 0.611,-0.204 1.302,-0.41 2.041,-0.63 5.828,-1.734 10.598,-3.541 9.929,-8.107 -0.691,-4.723 -7.398,-5.779 -11.256,-5.657 -0.637,0.021 -1.177,-0.484 -1.197,-1.125 -0.02,-0.641 0.483,-1.177 1.125,-1.197 5.737,-0.19 12.759,1.714 13.627,7.644 0.779,5.323 -3.511,7.886 -7.813,9.464 4.977,0.629 10.467,2.321 10.953,7.694 0.239,2.637 -0.481,4.868 -2.14,6.633 -3.498,3.72 -10.354,4.396 -14.873,4.396 z"
       style="fill:#ffffff"
       id="path38" />
    <path
       d="m 804.856,1156.381 c -1.208,0 -2.483,-0.058 -3.83,-0.173 -0.639,-0.055 -1.113,-0.617 -1.058,-1.257 0.054,-0.639 0.616,-1.115 1.256,-1.058 6.904,0.594 11.682,-0.38 14.202,-2.889 1.614,-1.605 2.311,-3.911 2.073,-6.852 -0.633,-7.831 -11.853,-7.435 -13.134,-7.357 -0.327,0.02 -0.658,-0.106 -0.892,-0.344 -0.234,-0.238 -0.355,-0.563 -0.332,-0.896 0.172,-2.502 0.215,-5.11 0.256,-7.633 0.026,-1.606 0.052,-3.215 0.11,-4.814 0.022,-0.611 0.514,-1.101 1.125,-1.119 2.196,-0.07 4.352,0.054 6.436,0.171 1.586,0.089 3.226,0.181 4.858,0.188 0.642,0 1.159,0.524 1.157,1.166 -0.003,0.64 -0.522,1.156 -1.162,1.156 h -0.005 c -1.693,-0.01 -3.363,-0.101 -4.979,-0.19 -1.757,-0.099 -3.434,-0.182 -5.145,-0.187 -0.034,1.221 -0.054,2.444 -0.074,3.667 -0.035,2.13 -0.07,4.32 -0.184,6.477 0.046,0 0.093,0 0.139,0 6.464,0 13.567,2.446 14.14,9.53 0.295,3.653 -0.629,6.576 -2.75,8.687 -2.491,2.479 -6.59,3.729 -12.209,3.729 z"
       style="fill:#ffffff"
       id="path39" />
    <path
       d="m 837.73,1155.434 h -0.016 c -0.642,-0.01 -1.154,-0.535 -1.146,-1.177 l 0.002,-0.147 c 0.081,-5.815 -0.537,-9.337 -1.837,-10.466 -0.316,-0.274 -0.657,-0.364 -1.109,-0.296 -1.105,0.172 -1.667,1.535 -1.945,3.212 0.152,1.865 0.012,3.878 -0.099,5.47 -0.047,0.684 -0.089,1.261 -0.089,1.658 0,0.642 -0.52,1.161 -1.162,1.161 -0.641,0 -1.161,-0.52 -1.162,-1.161 0,-0.34 -0.013,-0.762 -0.027,-1.24 -0.048,-1.642 -0.115,-3.905 0.201,-5.986 -0.111,-1.173 -0.359,-2.188 -0.847,-2.736 -0.206,-0.231 -0.427,-0.337 -0.741,-0.352 -0.361,-0.011 -0.603,0.071 -0.816,0.294 -1.306,1.366 -0.855,6.191 -0.639,8.511 0.065,0.694 0.118,1.274 0.13,1.67 0.02,0.641 -0.484,1.177 -1.125,1.196 -0.639,0.038 -1.177,-0.484 -1.197,-1.126 -0.011,-0.36 -0.062,-0.89 -0.121,-1.524 -0.387,-4.149 -0.607,-8.364 1.272,-10.332 0.678,-0.709 1.574,-1.056 2.607,-1.009 0.931,0.045 1.75,0.435 2.366,1.129 0.149,0.167 0.284,0.351 0.407,0.548 0.611,-0.878 1.459,-1.495 2.628,-1.677 1.126,-0.174 2.157,0.114 2.99,0.837 2.458,2.135 2.7,7.669 2.636,12.252 l -0.002,0.146 c -0.009,0.636 -0.527,1.146 -1.161,1.146 z"
       style="fill:#ffffff"
       id="path40" />
    <path
       d="m 856.398,1155.494 h -0.016 c -0.642,-0.01 -1.154,-0.535 -1.146,-1.177 l 0.002,-0.147 c 0.081,-5.815 -0.537,-9.337 -1.836,-10.466 -0.316,-0.274 -0.657,-0.363 -1.109,-0.296 -1.105,0.172 -1.667,1.534 -1.945,3.21 0.152,1.866 0.012,3.88 -0.099,5.472 -0.047,0.684 -0.089,1.261 -0.089,1.658 0,0.642 -0.52,1.161 -1.161,1.161 -0.642,0 -1.162,-0.52 -1.162,-1.16 0,-0.34 -0.013,-0.761 -0.027,-1.239 -0.049,-1.643 -0.116,-3.908 0.201,-5.99 -0.112,-1.172 -0.359,-2.186 -0.847,-2.733 -0.206,-0.232 -0.428,-0.338 -0.742,-0.353 -0.354,-0.014 -0.603,0.07 -0.816,0.294 -1.306,1.366 -0.855,6.191 -0.639,8.511 0.065,0.694 0.118,1.274 0.13,1.67 0.02,0.641 -0.484,1.177 -1.125,1.196 -0.642,0.031 -1.177,-0.483 -1.197,-1.126 -0.011,-0.36 -0.062,-0.89 -0.121,-1.524 -0.387,-4.149 -0.607,-8.364 1.272,-10.332 0.678,-0.709 1.574,-1.053 2.607,-1.009 0.931,0.045 1.75,0.435 2.367,1.129 0.149,0.167 0.284,0.351 0.406,0.548 0.612,-0.878 1.459,-1.495 2.628,-1.677 1.125,-0.173 2.158,0.115 2.989,0.837 2.458,2.135 2.7,7.669 2.636,12.252 l -0.002,0.146 c -0.009,0.636 -0.527,1.146 -1.161,1.146 z"
       style="fill:#ffffff"
       id="path41" />
    <path
       d="m 485.312,898.035 c -0.27,0 -0.525,-0.004 -0.763,-0.011 -0.641,-0.019 -1.146,-0.553 -1.128,-1.194 0.018,-0.641 0.549,-1.134 1.194,-1.128 3.73,0.108 6.696,-0.621 7.943,-1.947 0.591,-0.628 0.834,-1.415 0.745,-2.405 -0.219,-2.42 -3.934,-2.815 -7.399,-2.996 l -0.674,-0.037 c -0.556,-0.033 -1.009,-0.456 -1.082,-1.008 -0.072,-0.552 0.257,-1.077 0.785,-1.253 0.357,-0.119 0.761,-0.24 1.192,-0.368 3.137,-0.934 5.707,-1.889 5.378,-4.132 -0.348,-2.381 -3.92,-2.911 -5.987,-2.841 -0.645,0.018 -1.177,-0.483 -1.198,-1.125 -0.02,-0.641 0.483,-1.177 1.125,-1.197 3.513,-0.12 7.812,1.087 8.359,4.827 0.398,2.718 -1.267,4.304 -3.274,5.32 2.504,0.556 4.832,1.772 5.088,4.601 0.151,1.666 -0.309,3.081 -1.365,4.205 -2.141,2.277 -6.248,2.689 -8.94,2.689 z"
       style="fill:#f7410f"
       id="path42" />
    <path
       d="m 503.938,897.654 c -0.333,0 -0.67,-0.025 -1.009,-0.077 -3.438,-0.526 -5.851,-3.491 -6.452,-7.933 -0.61,-4.502 0.916,-10.26 4.943,-12.064 0.584,-0.259 1.273,0 1.535,0.586 0.262,0.585 0,1.272 -0.585,1.535 -2.709,1.213 -3.938,5.352 -3.665,8.929 0.572,-0.607 1.306,-1.08 2.175,-1.391 2.17,-0.777 4.837,-0.389 6.636,0.962 2.073,1.555 2.801,3.852 1.901,5.993 -0.894,2.128 -3.063,3.46 -5.479,3.46 z m -4.455,-5.702 c 0.625,1.479 1.757,3.017 3.796,3.328 1.949,0.295 3.485,-0.773 3.995,-1.986 0.481,-1.145 0.061,-2.324 -1.154,-3.235 -1.182,-0.887 -3.015,-1.146 -4.459,-0.632 -0.715,0.256 -1.631,0.818 -1.933,2.048 -0.044,0.182 -0.13,0.344 -0.245,0.478 z"
       style="fill:#f7410f"
       id="path43" />
    <path
       d="m 519.128,897.421 c -0.732,0 -1.477,-0.105 -2.209,-0.323 -2.133,-0.634 -3.641,-2.096 -4.033,-3.91 -0.319,-1.477 -0.048,-3.802 3.057,-6.497 2.09,-1.814 4.242,-1.478 5.45,-0.64 1.317,0.915 1.872,2.528 1.35,3.924 -0.374,1.002 -1.852,3.226 -7.583,2.738 0.217,0.965 1.121,1.771 2.421,2.157 1.347,0.4 3.438,0.352 4.905,-1.102 0.456,-0.45 1.191,-0.447 1.643,0.009 0.451,0.456 0.447,1.191 -0.009,1.644 -1.316,1.302 -3.114,2 -4.992,2 z m -3.422,-6.996 c 3.36,0.217 4.638,-0.665 4.862,-1.264 0.149,-0.399 -0.056,-0.894 -0.499,-1.201 -0.712,-0.494 -1.685,-0.312 -2.603,0.484 -0.772,0.671 -1.363,1.338 -1.76,1.98 z"
       style="fill:#f7410f"
       id="path44" />
    <path
       d="m 532.897,895.256 c -0.28,0 -0.561,-0.101 -0.784,-0.305 -1.325,-1.213 -2.685,-2.669 -4,-4.077 -0.977,-1.046 -1.899,-2.033 -2.761,-2.875 -0.459,-0.448 -0.468,-1.184 -0.021,-1.643 0.449,-0.46 1.184,-0.469 1.643,-0.02 0.901,0.879 1.841,1.886 2.837,2.952 1.285,1.375 2.613,2.797 3.871,3.949 0.473,0.433 0.506,1.168 0.073,1.641 -0.229,0.25 -0.543,0.377 -0.857,0.377 z"
       style="fill:#f7410f"
       id="path45" />
    <path
       d="m 1499.735,490.049 c 6.56,-16.001 -33.192,-28.556 -52.31,-32.297 -18.701,-3.659 -34.942,-6.708 -49.783,-8.975 -0.105,-4.486 -0.409,-8.609 -0.625,-11.096 2.862,-5.328 -12.065,-12.359 -26.039,-12.948 -23.637,-0.997 -49.735,-1.198 -67.634,1.029 -7.389,0.919 -23.906,4.624 -24.579,10.347 -0.064,0.542 0,1.048 0.165,1.527 -0.842,4.292 0.076,10.215 0.569,15.652 -21.758,4.51 -55.001,8.183 -74.019,14.694 -15.509,5.31 -23.627,3.062 -32.116,17.253 0,0 -0.125,0.775 -0.032,2.093 l -12.865,5.718 c -14.786,2.997 -17.058,4.888 -19.949,19.067 -3.855,18.909 -5.444,41.331 -6.217,60.611 -2.652,66.123 -1.573,133.6 -1.455,199.664 0.127,70.803 -1.535,141.367 -1.535,212.009 0,18.847 -1.644,37.172 21.483,38.063 6.128,0.236 11.07,0.179 15.119,-0.487 108.942,48.779 245.077,38.04 292.818,15.49 25.74,-12.158 34.792,-12.685 39.079,-42.621 6.627,-46.277 6.389,-174.067 6.694,-220.976 0.752,-115.769 -4.516,-172.192 -6.769,-283.817 z"
       style="fill:#3d3d3d"
       id="path46" />
    <path
       d="m 526.066,895.16 c -0.28,0 -0.561,-0.101 -0.784,-0.305 -0.473,-0.434 -0.505,-1.168 -0.072,-1.641 1.212,-1.324 2.667,-2.683 4.074,-3.996 1.047,-0.979 2.037,-1.902 2.878,-2.766 0.448,-0.458 1.184,-0.468 1.643,-0.02 0.459,0.447 0.468,1.183 0.021,1.643 -0.88,0.901 -1.888,1.843 -2.956,2.84 -1.374,1.283 -2.795,2.61 -3.946,3.867 -0.229,0.25 -0.542,0.377 -0.857,0.377 z"
       style="fill:#f7410f"
       id="path47" />
    <path
       d="m 535.758,901.726 c -0.324,0 -0.646,-0.134 -0.875,-0.396 -0.508,-0.581 -0.535,-1.525 -0.404,-3.559 l 0.024,-0.401 c 0.021,-0.452 0.048,-0.904 0.075,-1.356 0.059,-1.011 0.121,-2.057 0.121,-3.08 0,-1.354 -0.025,-2.697 -0.051,-4.04 -0.025,-1.355 -0.051,-2.711 -0.051,-4.076 0,-0.642 0.52,-1.161 1.162,-1.161 0.642,0 1.162,0.52 1.162,1.161 0,1.351 0.025,2.691 0.051,4.032 0.026,1.357 0.052,2.715 0.052,4.084 0,1.091 -0.063,2.172 -0.125,3.217 -0.026,0.443 -0.052,0.887 -0.073,1.331 l -0.026,0.439 c -0.027,0.419 -0.106,1.652 -0.031,2.068 0.27,0.47 0.18,1.08 -0.245,1.451 -0.22,0.192 -0.493,0.286 -0.764,0.286 z m 1.021,-1.683 h 0.01 z m -0.147,-0.243 z"
       style="fill:#f7410f"
       id="path48" />
    <path
       d="m 536.647,893.595 c -0.031,0 -0.062,0 -0.092,0 -0.642,-0.015 -1.149,-0.546 -1.135,-1.188 0.014,-0.642 0.541,-1.13 1.188,-1.135 0.019,0 0.038,0 0.056,0 1.243,0 3.345,-0.91 3.935,-1.913 0.195,-0.332 0.191,-0.61 -0.015,-0.962 -1.053,-1.798 -3.514,-2.004 -4.523,-2.009 -0.642,-0.003 -1.159,-0.525 -1.156,-1.167 0.003,-0.64 0.522,-1.155 1.162,-1.155 h 0.005 c 2.975,0.014 5.35,1.165 6.517,3.157 0.631,1.077 0.635,2.255 0.012,3.314 -1.173,1.993 -4.222,3.057 -5.954,3.057 z"
       style="fill:#f7410f"
       id="path49" />
    <path
       d="m 575.616,1114.584 c -10.539,0 -17.781,-6.02 -21.166,-9.617 -12.377,-13.156 -15.451,-36.011 -6.447,-47.951 4.474,-5.934 15.522,-14.059 39.241,-1.821 2.009,1.036 2.797,3.505 1.761,5.513 -1.035,2.009 -3.504,2.797 -5.513,1.761 -7.891,-4.071 -22.146,-9.552 -28.954,-0.525 -6.585,8.733 -3.676,27.267 5.873,37.416 5.83,6.198 15.976,11.469 31.195,1.386 1.886,-1.249 4.423,-0.732 5.671,1.151 1.249,1.884 0.733,4.423 -1.151,5.671 -7.788,5.16 -14.658,7.017 -20.51,7.018 z"
       style="fill:#ffffff"
       id="path50" />
    <path
       d="m 644.939,1118.635 c -0.952,0 -1.913,-0.041 -2.883,-0.124 -9.666,-0.825 -18.472,-5.943 -24.793,-14.41 -5.783,-7.745 -9.099,-17.601 -9.338,-27.752 v 0 c -0.173,-7.354 1.8,-13.19 5.862,-17.35 5.267,-5.393 13.871,-7.903 27.079,-7.903 20.453,0 30.417,7.626 34.396,26.323 2.399,11.273 -0.47,22.876 -7.675,31.037 -5.847,6.624 -13.807,10.179 -22.647,10.179 z m -28.833,-42.478 c 0.489,20.776 14.094,33.127 26.646,34.199 7.341,0.63 13.98,-1.971 18.698,-7.316 5.497,-6.227 7.667,-15.168 5.805,-23.918 -3.196,-15.021 -9.608,-19.843 -26.391,-19.843 -10.856,0 -17.6,1.729 -21.224,5.438 -2.5,2.559 -3.656,6.301 -3.535,11.439 v 0 z"
       style="fill:#ffffff"
       id="path51" />
    <path
       d="m 720.877,1122.333 c -4.197,0 -7.958,-1.049 -11.265,-3.149 -11.571,-7.352 -16.295,-26.948 -14.042,-58.245 1.072,-14.879 1.372,-19.398 1.788,-25.654 0.312,-4.69 0.688,-10.348 1.501,-22.062 0.156,-2.255 2.118,-3.955 4.366,-3.799 2.254,0.156 3.955,2.111 3.798,4.365 -0.812,11.701 -1.188,17.353 -1.5,22.038 -0.417,6.269 -0.717,10.798 -1.791,25.699 -1.964,27.271 1.682,45.295 10.267,50.749 5.353,3.401 13.345,2.169 23.755,-3.663 1.972,-1.107 4.466,-0.401 5.57,1.569 1.104,1.972 0.402,4.465 -1.57,5.57 -7.827,4.385 -14.808,6.581 -20.878,6.581 z"
       style="fill:#ffffff"
       id="path52" />
    <path
       d="m 829.495,1125.147 c -2.232,0 -4.055,-1.79 -4.091,-4.025 l -0.011,-0.645 c -0.031,-1.868 -0.051,-3.699 -0.06,-5.496 -0.119,-5.463 -0.374,-11.033 -0.64,-16.839 -0.852,-18.607 -1.732,-37.85 2.062,-55.536 0.474,-2.209 2.646,-3.621 4.859,-3.143 2.209,0.474 3.617,2.649 3.143,4.859 -0.867,4.041 -1.473,8.202 -1.882,12.447 1.65,-3.607 3.574,-6.42 5.774,-8.455 3.243,-2.999 7.194,-4.372 11.418,-3.969 9.45,0.898 16.411,6.771 19.098,16.108 3.249,11.291 -0.603,24.258 -9.159,30.833 -2.789,2.144 -7.515,4.659 -14.133,4.391 6.634,6.952 10.932,10.088 24.259,17.351 1.984,1.081 2.716,3.566 1.635,5.551 -1.082,1.984 -3.566,2.716 -5.551,1.635 -17.972,-9.793 -21.167,-13.187 -32.205,-25.321 -0.404,7.091 -0.516,14.132 -0.491,20.293 0.041,1.974 0.064,3.934 0.064,5.869 0,2.247 -1.812,4.073 -4.059,4.092 h -0.034 z m 5.426,-41.422 c 8.019,4.65 14.96,5.023 20.1,1.073 5.802,-4.458 8.561,-14.156 6.281,-22.08 -1.226,-4.26 -4.304,-9.491 -12.009,-10.225 -1.92,-0.178 -3.539,0.399 -5.087,1.832 -5.11,4.725 -7.861,16.372 -9.285,29.399 z"
       style="fill:#ffffff"
       id="path53" />
    <path
       d="m 777.453,1113.848 c -0.951,0 -1.912,-0.041 -2.881,-0.124 -9.667,-0.826 -18.472,-5.944 -24.794,-14.411 -5.783,-7.745 -9.099,-17.602 -9.337,-27.752 v 0 c -0.173,-7.354 1.799,-13.19 5.862,-17.35 5.267,-5.392 13.872,-7.903 27.079,-7.903 20.452,0 30.417,7.626 34.396,26.323 2.398,11.273 -0.471,22.876 -7.675,31.037 -5.848,6.625 -13.808,10.18 -22.649,10.18 z m -4.072,-59.357 c -10.856,0 -17.601,1.729 -21.225,5.438 -2.499,2.559 -3.655,6.3 -3.535,11.439 v 0 c 0.488,20.776 14.093,33.127 26.646,34.2 7.344,0.629 13.98,-1.973 18.698,-7.317 5.497,-6.227 7.667,-15.168 5.806,-23.918 -3.196,-15.021 -9.609,-19.843 -26.391,-19.843 z"
       style="fill:#ffffff"
       id="path54" />
    <path
       d="m 1121.023,466.078 c -14.786,2.997 -17.058,4.888 -19.949,19.067 -3.855,18.909 -5.444,41.33 -6.217,60.611 -2.652,66.123 -1.573,133.6 -1.455,199.664 0.127,70.803 -1.535,141.367 -1.535,212.009 0,18.847 -1.644,37.172 21.483,38.063 21.699,0.836 28.54,-1.987 33.454,-22.641 8.911,-37.458 -5.465,-81.117 -5.832,-119.347 -0.739,-76.855 6.501,-152.728 13.855,-229.104 2.476,-25.717 1.143,-51.607 -1.472,-77.256 -0.902,-8.851 -1.506,-59.462 -9.351,-63.291 -22.088,-10.779 -23.522,87.314 -24.067,95.98 -2.678,42.59 -4.54,85.972 -4.54,129.42 0,55.972 -7.417,189.544 -7.417,212.58 0,9.297 0.011,36.088 1.535,45.269 2.898,17.458 1.557,20.074 18.319,27.622 109.047,49.105 245.621,38.363 293.454,15.77 25.74,-12.158 34.792,-12.685 39.079,-42.621 6.627,-46.277 6.389,-174.067 6.694,-220.976 0.767,-118.159 -4.736,-174.488 -6.905,-290.794 -64.041,4.459 -96.031,28.702 -161.447,26.844 -57.37,-1.629 -106.997,-22.285 -163.873,-23.008"
       id="path55" />
    <g
       clip-path="url(#clippath-1)"
       id="g56">
      <path
         d="m 964.085,1070.453 c -1.858,65.417 10.374,97.709 14.834,161.751 -116.306,2.169 -172.635,7.673 -290.794,6.905 -46.909,-0.305 -174.699,-0.067 -220.976,-6.694 -29.936,-4.287 -30.462,-13.339 -42.621,-39.079 -11.297,-23.917 -19.631,-70.018 -19.002,-123.772 z"
         style="fill:#f7410f"
         id="path56" />
    </g>
    <path
       d="m 1133.921,458.267 c 8.489,-14.191 16.607,-11.943 32.116,-17.253 20.625,-7.061 57.994,-10.784 79.284,-15.857 56.316,-13.419 92.072,-8.184 162.66,5.627 21.671,4.24 69.864,19.804 47.059,38.875 -21.049,17.602 -47.428,20.889 -75.704,21.483 -43.714,0.919 -79.2,1.602 -123.234,3.696 -129.222,6.144 -122.182,-36.57 -122.182,-36.57 z"
       style="fill:#4c4c4c"
       id="path57" />
    <path
       d="m 1239.534,436.762 c 2.867,-7.408 -3.374,-23.954 1.611,-29.959 2.864,-3.45 18.913,-3.482 59.418,-4.665 30.589,-0.893 56.778,6.138 56.778,6.138 0,0 1.814,16.627 0.276,26.853 -18.286,9.176 -40.168,10.132 -60.891,11.157 -18.336,0.907 -35.67,-0.991 -57.192,-7.99"
       id="path58" />
    <path
       d="m 1263.9,398.793 c -7.389,0.919 -23.906,4.624 -24.579,10.347 -0.911,7.741 22.483,8.842 32.219,9.351 22.433,1.172 48.99,-0.003 71.361,-2.54 30.369,-3.443 8.534,-17.348 -11.367,-18.187 -23.637,-0.997 -49.735,-1.198 -67.634,1.029 z"
       style="fill:#4c4c4c"
       id="path59" />
    <path
       d="m 1098.773,719.275 c 2.526,25.294 -6.905,238.62 8.44,265.474 4.804,8.408 30.287,3.115 39.933,4.262 17.531,2.084 17.052,-13.403 19.913,-28.509 6.418,-33.887 2.886,-68.504 6.174,-102.784 3.856,-40.207 4.167,-306.531 1.622,-359.91 -27.11,-4.092 -35.928,-27.128 -64.062,-19.456 0,0 -14.867,212.42 -12.021,240.922 z"
       style="fill:#ffffff"
       id="path60" />
    <path
       d="m 1153.825,612.923 c -0.604,0 -1.176,-0.333 -1.465,-0.891 -0.653,-1.258 -0.911,-2.748 -0.98,-4.298 -1.597,-4.86 -5.313,-9.743 -10.454,-9.743 -0.083,0 -0.164,0 -0.247,0.004 -3.12,0.094 -6.522,2.789 -7.428,5.884 -0.43,1.469 -0.419,3.577 2.071,5.279 0.752,0.515 0.945,1.542 0.431,2.294 -0.514,0.751 -1.54,0.946 -2.294,0.432 -3.172,-2.168 -4.402,-5.423 -3.376,-8.932 1.314,-4.491 5.925,-8.118 10.496,-8.256 4.82,-0.133 8.526,2.599 11.056,6.22 0,-0.064 0,-0.126 0,-0.188 v -10.579 c 0,-0.912 0.739,-1.65 1.65,-1.65 0.911,0 1.65,0.739 1.65,1.65 v 10.579 c 0,0.866 -0.063,1.813 -0.131,2.815 -0.081,1.201 -0.167,2.478 -0.142,3.662 0.413,1.352 0.683,2.68 0.804,3.906 0.078,0.788 -0.414,1.52 -1.173,1.745 -0.156,0.046 -0.313,0.069 -0.47,0.069 z"
       id="path61" />
    <path
       d="m 1146.126,553.829 c -2.464,0 -5.763,-1.142 -9.477,-5.42 -3.1,-3.571 -2.528,-7.246 -1.097,-9.308 1.558,-2.244 4.304,-3.189 6.683,-2.302 1.716,0.642 5.529,3.194 4.665,13.083 0.02,-0.004 0.038,-0.008 0.057,-0.012 1.699,-0.368 3.117,-1.945 3.793,-4.22 0.694,-2.334 0.609,-5.964 -1.912,-8.513 -0.752,-0.76 -0.746,-1.986 0.015,-2.738 0.76,-0.752 1.985,-0.745 2.737,0.014 3.102,3.135 4.202,7.863 2.872,12.339 -1.085,3.651 -3.585,6.231 -6.687,6.902 -0.495,0.107 -1.048,0.175 -1.649,0.176 z m -5.738,-13.491 c -0.597,0 -1.228,0.356 -1.654,0.971 -0.868,1.25 -0.554,2.956 0.84,4.562 1.189,1.371 2.376,2.412 3.516,3.1 0.388,-5.521 -0.905,-8.057 -2.21,-8.545 -0.157,-0.059 -0.323,-0.087 -0.491,-0.087 z"
       id="path62" />
    <path
       d="m 1137.424,532.785 c -0.487,0 -0.976,-0.183 -1.352,-0.55 -0.766,-0.747 -0.781,-1.972 -0.034,-2.738 1.513,-1.551 3.248,-3.171 5.086,-4.887 2.368,-2.212 4.817,-4.5 6.802,-6.667 0.723,-0.788 1.946,-0.843 2.735,-0.121 0.788,0.722 0.842,1.946 0.12,2.735 -2.087,2.279 -4.592,4.62 -7.015,6.882 -1.804,1.684 -3.507,3.275 -4.957,4.762 -0.379,0.389 -0.883,0.584 -1.386,0.584 z"
       id="path63" />
    <path
       d="m 1149.188,532.95 c -0.467,0 -0.935,-0.168 -1.307,-0.508 -2.279,-2.087 -4.619,-4.592 -6.882,-7.015 -1.684,-1.804 -3.275,-3.507 -4.762,-4.958 -0.766,-0.747 -0.781,-1.972 -0.034,-2.738 0.745,-0.766 1.973,-0.78 2.737,-0.034 1.552,1.513 3.173,3.249 4.889,5.086 2.212,2.368 4.499,4.817 6.667,6.802 0.788,0.722 0.842,1.946 0.12,2.735 -0.382,0.417 -0.904,0.629 -1.429,0.629 z"
       id="path64" />
    <path
       d="m 1160.209,514.715 c -0.768,0 -1.683,-0.044 -2.784,-0.115 -0.27,-0.017 -0.506,-0.033 -0.688,-0.042 -0.776,-0.037 -1.554,-0.083 -2.331,-0.128 -1.744,-0.103 -3.548,-0.208 -5.313,-0.208 -2.327,0 -4.682,0.045 -6.959,0.088 -2.292,0.043 -4.663,0.089 -7.021,0.089 -1.069,0 -1.936,-0.867 -1.936,-1.936 0,-1.069 0.866,-1.936 1.936,-1.936 2.327,0 4.637,-0.044 6.947,-0.088 2.295,-0.044 4.669,-0.089 7.032,-0.089 1.88,0 3.741,0.109 5.541,0.215 0.764,0.045 1.526,0.09 2.289,0.126 0.199,0.009 0.457,0.026 0.753,0.045 0.729,0.047 2.876,0.186 3.591,0.051 0.783,-0.456 1.808,-0.307 2.428,0.401 0.704,0.805 0.622,2.028 -0.183,2.732 -0.673,0.588 -1.642,0.795 -3.302,0.795 z m 0.755,-3.711 c 0,0 0,0 0,10e-4 z"
       id="path65" />
    <path
       d="m 1135.821,513.867 h -0.01 c -1.069,-0.005 -1.933,-0.876 -1.927,-1.945 0.023,-5.099 1.994,-9.17 5.406,-11.168 1.837,-1.075 3.839,-1.082 5.643,-0.021 3.475,2.044 5.3,7.422 5.232,10.357 -0.024,1.054 -0.886,1.892 -1.935,1.892 -0.016,0 -0.03,0 -0.045,0 -1.069,-0.024 -1.916,-0.911 -1.892,-1.98 0.05,-2.164 -1.506,-5.861 -3.325,-6.931 -0.594,-0.349 -1.093,-0.343 -1.722,0.025 -3.127,1.832 -3.483,6.097 -3.492,7.846 -0.01,1.066 -0.87,1.927 -1.936,1.927 z"
       id="path66" />
    <path
       d="m 1261.123,1004.05 c -3.164,0 -6.113,-1.289 -8.52,-3.847 -4.919,-5.229 -6.107,-14.354 -2.494,-19.146 1.839,-2.44 6.341,-5.804 15.825,-0.911 1.14,0.588 1.587,1.989 0.999,3.13 -0.587,1.14 -1.988,1.589 -3.13,0.999 -2.77,-1.429 -7.75,-3.384 -9.984,-0.421 -2.294,3.043 -1.22,9.563 2.168,13.165 2.871,3.051 6.61,3.195 10.815,0.409 1.07,-0.708 2.511,-0.416 3.22,0.653 0.709,1.069 0.416,2.511 -0.653,3.22 -2.771,1.837 -5.585,2.748 -8.246,2.748 z"
       style="fill:#ffdb2c"
       id="path67" />
    <path
       d="m 1287.421,1005.62 c -0.384,0 -0.771,-0.017 -1.162,-0.05 -8.613,-0.735 -13.449,-9.159 -13.626,-16.711 -0.071,-2.999 0.749,-5.396 2.438,-7.126 2.822,-2.891 7.518,-3.225 10.803,-3.225 8.186,0 12.177,3.064 13.775,10.576 0.958,4.506 -0.193,9.149 -3.082,12.422 -2.363,2.677 -5.578,4.113 -9.146,4.113 z m -1.547,-22.465 c -3.833,0 -6.28,0.597 -7.479,1.825 -0.792,0.812 -1.157,2.044 -1.117,3.77 v 0 c 0.132,5.61 3.675,11.704 9.377,12.191 2.54,0.209 4.812,-0.675 6.43,-2.51 1.919,-2.174 2.675,-5.307 2.021,-8.38 -1.124,-5.285 -3.281,-6.896 -9.23,-6.896 z"
       style="fill:#ffdb2c"
       id="path68" />
    <path
       d="m 1316.152,1007.022 c -1.732,0 -3.293,-0.438 -4.674,-1.315 -4.639,-2.947 -6.547,-10.603 -5.672,-22.754 0.403,-5.6 0.519,-7.324 0.674,-9.67 0.118,-1.782 0.261,-3.923 0.571,-8.388 0.089,-1.279 1.196,-2.25 2.479,-2.156 1.28,0.089 2.245,1.198 2.156,2.479 -0.31,4.457 -0.451,6.594 -0.57,8.374 -0.156,2.352 -0.271,4.081 -0.675,9.695 -0.712,9.879 0.574,16.621 3.528,18.498 1.766,1.123 4.524,0.649 8.197,-1.408 1.119,-0.626 2.534,-0.229 3.162,0.891 0.628,1.12 0.229,2.535 -0.891,3.162 -3.083,1.728 -5.854,2.593 -8.286,2.593 z"
       style="fill:#ffdb2c"
       id="path69" />
    <path
       d="m 1357.267,1005.181 c -1.268,0 -2.303,-1.017 -2.323,-2.285 v -0.245 c -0.012,-0.716 -0.02,-1.416 -0.022,-2.104 -0.046,-2.05 -0.142,-4.144 -0.241,-6.325 -0.324,-7.092 -0.66,-14.426 0.797,-21.218 0.269,-1.254 1.506,-2.051 2.759,-1.784 1.254,0.27 2.053,1.504 1.784,2.759 -0.086,0.399 -0.164,0.802 -0.236,1.207 0.139,-0.149 0.281,-0.292 0.427,-0.426 1.395,-1.29 3.107,-1.884 4.921,-1.705 3.853,0.366 6.806,2.854 7.899,6.652 1.313,4.567 -0.259,9.823 -3.739,12.498 -0.885,0.681 -2.242,1.456 -4.05,1.732 1.905,1.819 3.663,2.958 7.781,5.202 1.127,0.614 1.543,2.025 0.929,3.151 -0.614,1.127 -2.026,1.542 -3.151,0.929 -6.192,-3.375 -7.826,-4.774 -11.148,-8.381 -0.063,1.722 -0.095,3.617 -0.084,5.7 0.017,0.779 0.026,1.554 0.026,2.318 0,1.275 -1.028,2.312 -2.305,2.323 h -0.019 z m 2.859,-16.89 c 1.911,1.02 4.379,1.731 6.33,0.229 1.962,-1.507 2.886,-4.813 2.104,-7.528 -0.397,-1.381 -1.392,-3.076 -3.873,-3.312 -0.505,-0.047 -0.902,0.099 -1.327,0.491 -1.01,0.934 -2.449,3.437 -3.234,10.12 z"
       style="fill:#ffdb2c"
       id="path70" />
    <path
       d="m 1337.575,1003.808 c -0.384,0 -0.771,-0.017 -1.162,-0.05 -8.611,-0.735 -13.448,-9.158 -13.626,-16.71 v 0 c -0.07,-3 0.75,-5.397 2.439,-7.127 2.823,-2.891 7.517,-3.225 10.802,-3.225 8.187,0 12.178,3.064 13.776,10.576 0.958,4.506 -0.193,9.149 -3.082,12.421 -2.364,2.678 -5.579,4.114 -9.147,4.114 z m -10.143,-16.87 c 0.133,5.609 3.676,11.703 9.377,12.19 2.538,0.212 4.812,-0.676 6.431,-2.51 1.919,-2.175 2.675,-5.307 2.021,-8.38 -1.124,-5.285 -3.281,-6.896 -9.231,-6.896 -3.833,0 -6.278,0.597 -7.479,1.825 -0.793,0.812 -1.158,2.045 -1.118,3.771 v 0 z"
       style="fill:#ffdb2c"
       id="path71" />
    <polygon
       points="1463.059,567.611 1467.667,729.873 1464.595,885.996 1285.827,885.883 1285.827,567.724 "
       style="fill:#ffdb2c"
       id="polygon71" />
    <g
       id="g73">
      <path
         d="m 1391.966,829.94 c -0.82,0 -1.631,-0.288 -2.276,-0.841 -12.944,-11.073 -24.028,-22.897 -36.863,-36.589 l -3.967,-4.229 c -1.323,-1.409 -1.255,-3.624 0.154,-4.947 1.409,-1.325 3.625,-1.255 4.947,0.154 l 3.973,4.234 c 10.85,11.574 20.436,21.801 30.893,31.285 0.363,-10.982 0.01,-22.404 -0.343,-33.515 -0.235,-7.525 -0.479,-15.307 -0.479,-22.65 0,-1.933 1.567,-3.5 3.5,-3.5 1.933,0 3.5,1.567 3.5,3.5 0,7.233 0.231,14.615 0.477,22.431 0.43,13.731 0.875,27.931 -0.023,41.398 -0.088,1.321 -0.914,2.48 -2.135,2.993 -0.438,0.185 -0.898,0.274 -1.356,0.274 z"
         id="path72" />
      <path
         d="m 1354.126,789.387 c -0.594,0 -1.192,0 -1.8,0 -1.933,-0.003 -3.497,-1.572 -3.494,-3.506 0,-1.931 1.569,-3.494 3.5,-3.494 h 0.01 c 16.672,0.037 28.102,-0.312 40.183,-0.67 10.984,-0.325 22.343,-0.661 38.144,-0.712 h 0.012 c 1.928,0 3.494,1.56 3.5,3.488 0.01,1.934 -1.556,3.506 -3.488,3.512 -15.71,0.051 -27.021,0.386 -37.96,0.709 -11.699,0.347 -22.773,0.674 -38.602,0.674 z"
         id="path73" />
    </g>
    <path
       d="m 1387.697,746.67 c -11.085,0 -22.756,-2.795 -29.711,-8.84 -5.197,-4.518 -7.382,-10.483 -6.397,-17.173 l -0.243,-0.061 c 3.909,-15.604 5.631,-16.427 20.106,-19.162 1.056,-0.199 2.193,-0.414 3.419,-0.652 12.219,-2.377 23.57,-0.023 33.729,6.999 7.969,5.508 12.353,12.528 12.027,19.261 -0.201,4.152 -2.279,10.125 -11.04,15.004 -5.417,3.017 -13.485,4.625 -21.891,4.625 z m -28.305,-29.166 0.229,0.089 c -2.408,6.239 -1.441,11.13 2.958,14.954 9.81,8.527 33.261,9.146 43.603,3.383 3.285,-1.83 7.246,-4.916 7.454,-9.227 0.203,-4.201 -3.167,-9.122 -9.016,-13.164 -8.55,-5.909 -18.11,-7.888 -28.413,-5.886 -1.239,0.241 -2.389,0.458 -3.456,0.66 -5.891,1.113 -9.135,1.726 -10.631,3.12 -1.049,0.977 -1.811,2.831 -2.729,6.072 z"
       id="path74" />
    <path
       d="m 1386.5,686.021 c -11.086,0 -22.756,-2.795 -29.711,-8.84 -5.196,-4.517 -7.381,-10.483 -6.397,-17.172 l -0.243,-0.061 c 3.909,-15.604 5.631,-16.427 20.105,-19.162 1.057,-0.2 2.194,-0.415 3.42,-0.653 12.226,-2.376 23.574,-0.021 33.729,7 7.969,5.508 12.353,12.528 12.027,19.26 -0.201,4.152 -2.279,10.125 -11.04,15.004 -5.416,3.017 -13.486,4.624 -21.891,4.625 z m -28.306,-29.167 0.229,0.089 c -2.408,6.239 -1.441,11.131 2.958,14.954 9.807,8.526 33.258,9.144 43.603,3.384 3.285,-1.83 7.246,-4.916 7.454,-9.227 0.203,-4.201 -3.167,-9.122 -9.016,-13.164 -8.548,-5.909 -18.106,-7.888 -28.413,-5.887 -1.239,0.241 -2.389,0.458 -3.456,0.66 -5.891,1.113 -9.135,1.726 -10.631,3.12 -1.048,0.977 -1.811,2.831 -2.729,6.071 z"
       id="path75" />
    <g
       id="g77">
      <path
         d="m 1145.622,592.132 c -0.322,0 -0.641,-0.113 -0.895,-0.331 -5.579,-4.773 -10.359,-9.873 -15.895,-15.778 l -1.691,-1.803 c -0.52,-0.553 -0.492,-1.424 0.062,-1.944 0.554,-0.52 1.422,-0.494 1.944,0.061 l 1.692,1.804 c 4.758,5.076 8.953,9.551 13.553,13.702 0.173,-4.824 0.015,-9.849 -0.139,-14.735 -0.102,-3.243 -0.206,-6.596 -0.206,-9.76 0,-0.76 0.615,-1.375 1.375,-1.375 0.76,0 1.375,0.616 1.375,1.375 0,3.12 0.101,6.303 0.206,9.673 0.186,5.914 0.377,12.028 -0.01,17.825 -0.034,0.52 -0.359,0.975 -0.839,1.176 -0.172,0.072 -0.353,0.108 -0.533,0.108 z"
         id="path76" />
      <path
         d="m 1129.315,574.655 c -0.256,0 -0.514,0 -0.775,0 -0.76,-10e-4 -1.375,-0.618 -1.373,-1.377 0,-0.759 0.616,-1.374 1.375,-1.374 0.234,-0.022 0.518,0 0.772,0 6.779,0 11.53,-0.141 16.55,-0.289 4.733,-0.14 9.628,-0.285 16.436,-0.307 h 0.01 c 0.758,0 1.373,0.613 1.375,1.371 0,0.76 -0.611,1.377 -1.37,1.38 -6.772,0.021 -11.648,0.166 -16.363,0.306 -5.041,0.149 -9.812,0.291 -16.631,0.291 z"
         id="path77" />
    </g>
  </g>
</svg>
