<?xml version="1.0" encoding="UTF-8" standalone="no"?>
<svg
   id="Layer_1"
   version="1.1"
   viewBox="0 0 500 500"
   sodipodi:docname="nik-4_QAu0hSZsk-unsplash.svg"
   width="500"
   height="500"
   inkscape:version="1.4.2 (ebf0e940, 2025-05-08)"
   xmlns:inkscape="http://www.inkscape.org/namespaces/inkscape"
   xmlns:sodipodi="http://sodipodi.sourceforge.net/DTD/sodipodi-0.dtd"
   xmlns="http://www.w3.org/2000/svg"
   xmlns:svg="http://www.w3.org/2000/svg">
  <sodipodi:namedview
     id="namedview35"
     pagecolor="#505050"
     bordercolor="#eeeeee"
     borderopacity="1"
     inkscape:showpageshadow="0"
     inkscape:pageopacity="0"
     inkscape:pagecheckerboard="0"
     inkscape:deskcolor="#505050"
     inkscape:zoom="0.30371795"
     inkscape:cx="511.98818"
     inkscape:cy="344.06923"
     inkscape:window-width="1280"
     inkscape:window-height="772"
     inkscape:window-x="0"
     inkscape:window-y="28"
     inkscape:window-maximized="0"
     inkscape:current-layer="g35" />
  <!-- Generator: Adobe Illustrator 29.0.0, SVG Export Plug-In . SVG Version: 2.1.0 Build 186)  -->
  <defs
     id="defs1">
    <clipPath
       id="clippath">
      <rect
         width="1500"
         height="2000"
         style="fill:none"
         id="rect1"
         x="0"
         y="0" />
    </clipPath>
  </defs>
  <g
     clip-path="url(#clippath)"
     id="g35"
     transform="matrix(0.41953848,0,0,0.41953848,-71.612497,-172.309)">
    <rect
       x="-16.535999"
       y="-54.292999"
       width="1565.042"
       height="2175.5591"
       style="display:none;fill:#efe927"
       id="rect2" />
    <path
       d="M 1205.303,360.896 867.827,197.815 c 0,0 -25.561,-17.473 -41.12,-4.111 -14.5,12.453 -23.339,111.008 1.111,111.008 24.45,0 5.557,-64.755 40.009,-56.532 34.452,8.223 49.154,55.12 60.265,78.833 20.282,43.289 54.94,59.579 83.835,87.331 26.981,25.913 187.084,123.176 187.084,123.176 l 6.292,-176.625 z"
       style="display:none;fill:#010101"
       id="path2" />
    <g
       id="g4"
       style="display:none">
      <path
         d="M 1219.995,335.28 882.519,172.199 c 0,0 -25.561,-17.473 -41.12,-4.111 -14.5,12.453 -23.339,111.008 1.111,111.008 24.45,0 5.557,-64.755 40.009,-56.532 34.452,8.223 49.154,55.12 60.265,78.833 20.282,43.289 54.94,59.579 83.835,87.331 26.981,25.913 187.084,123.176 187.084,123.176 l 6.292,-176.625 z"
         style="fill:#ffffff"
         id="path3" />
      <path
         d="m 1213.703,518.457 c -1.18,0 -2.359,-0.319 -3.402,-0.952 -6.563,-3.987 -161.032,-97.938 -188.221,-124.051 -8.291,-7.964 -17.325,-15.161 -26.06,-22.122 -21.735,-17.319 -44.21,-35.227 -59.169,-67.155 -1.698,-3.625 -3.466,-7.748 -5.337,-12.113 -10.293,-24.009 -24.391,-56.891 -50.516,-63.127 -5.487,-1.311 -7.61,0.1 -8.307,0.563 -4.814,3.197 -6.609,14.065 -8.193,23.653 -2.391,14.477 -5.368,32.495 -21.988,32.495 -5.303,0 -12.587,-2.599 -17.174,-14.981 -4.721,-12.742 -5.967,-34.842 -3.334,-59.116 1.274,-11.75 5.299,-39.991 15.128,-48.433 18.099,-15.541 44.74,0.829 48.641,3.377 l 337.074,162.886 c 2.339,1.13 3.789,3.536 3.697,6.132 l -6.291,176.625 c -0.083,2.323 -1.391,4.429 -3.437,5.533 -0.973,0.524 -2.042,0.785 -3.11,0.785 z M 876.894,215.295 c 2.252,0 4.636,0.299 7.146,0.898 32.531,7.765 48.771,45.643 59.517,70.709 1.827,4.262 3.553,8.288 5.16,11.717 13.658,29.151 33.968,45.333 55.47,62.466 8.969,7.146 18.242,14.536 26.971,22.919 22.394,21.507 141.572,95.124 176.397,116.467 L 1213.295,339.32 879.668,178.1 c -0.294,-0.142 -0.577,-0.306 -0.847,-0.49 -0.205,-0.139 -21.803,-14.298 -33.154,-4.55 -2.89,2.482 -8.101,16.502 -10.639,39.904 -2.388,22.019 -1.394,42.386 2.595,53.151 0.559,1.509 2.562,6.43 4.887,6.43 4.709,0 6.601,-6.64 9.06,-21.527 2.118,-12.821 4.308,-26.08 13.87,-32.432 3.3,-2.192 7.135,-3.292 11.454,-3.292 z"
         style="fill:#010101"
         id="path4" />
    </g>
    <path
       d="m 596.346,449.316 603.428,-94.844 c 2.496,-0.392 4.727,1.599 4.619,4.124 l -7.846,183.064 c -0.183,4.276 -3.067,7.947 -7.185,9.112 -31.951,9.038 -168.543,40.751 -195.487,34.628 -30.658,-6.968 -36.433,-45.107 -54.923,-43.154 -19.893,2.102 -36.231,61.463 -50.166,67.038 -12.985,5.194 -257.539,49.138 -285.061,54.214 -1.806,0.333 -10.755,-210.075 -10.755,-210.075 -0.079,-2.027 1.373,-3.792 3.377,-4.107 z"
       style="display:none;fill:#010101"
       id="path5" />
    <path
       d="M 592.48,451.635 321.771,290.002 c 0,0 -22.724,-17.282 -36.556,-4.066 -12.89,12.316 -20.748,109.789 0.988,109.789 21.736,0 4.94,-64.043 35.568,-55.911 30.628,8.132 52.363,48.795 56.315,63.027 3.952,14.232 16.796,74.209 42.484,101.656 23.986,25.629 182.867,158.69 182.867,158.69 z"
       style="display:none;fill:#010101"
       id="path6" />
    <g
       id="g8"
       style="display:none">
      <path
         d="m 613.12,431.521 603.428,-94.844 c 2.496,-0.392 4.727,1.599 4.619,4.124 l -7.846,183.064 c -0.183,4.276 -3.067,7.947 -7.185,9.112 -31.951,9.038 -168.543,40.751 -195.487,34.628 -30.658,-6.968 -36.433,-45.107 -54.923,-43.154 -19.893,2.102 -36.231,61.463 -50.166,67.038 -12.985,5.194 -257.539,49.138 -285.061,54.214 -1.806,0.333 -10.755,-210.075 -10.755,-210.075 -0.079,-2.027 1.373,-3.792 3.377,-4.107 z"
         style="fill:#ffffff"
         id="path7" />
      <path
         d="m 620.504,651.934 c -1.41,0 -2.8,-0.477 -3.914,-1.365 q -2.77,-2.208 -4.799,-37.977 c -0.968,-17.503 -2.181,-41.793 -3.604,-72.194 -2.423,-51.746 -4.647,-103.983 -4.67,-104.504 -0.202,-5.207 3.511,-9.723 8.636,-10.528 l 603.427,-94.844 c 3.041,-0.481 6.106,0.424 8.405,2.476 2.298,2.052 3.54,4.993 3.407,8.071 l -7.846,183.064 c -0.297,6.978 -5.005,12.943 -11.713,14.841 -21.148,5.982 -143.234,35.606 -187.86,35.609 -4.369,0 -7.988,-0.283 -10.705,-0.901 -18.516,-4.208 -28.779,-18.031 -37.025,-29.137 -6.647,-8.952 -10.959,-14.418 -15.862,-13.896 -7.926,0.837 -18.62,21.481 -25.696,35.141 -9.059,17.487 -15.007,28.363 -22.81,31.484 -8.217,3.287 -86.772,18.32 -262.668,50.264 -11.381,2.067 -19.668,3.572 -23.577,4.293 -0.373,0.069 -0.749,0.103 -1.124,0.103 z m -4.45,-214.566 c 3.05,71.544 7.801,175.123 9.816,201.018 4.355,-0.794 10.155,-1.847 17.108,-3.11 165.532,-30.063 253.099,-46.742 260.267,-49.574 3.894,-1.557 11.403,-16.052 16.372,-25.645 10.254,-19.793 20.856,-40.261 35.453,-41.803 12.206,-1.297 19.821,8.953 27.178,18.861 7.387,9.95 15.76,21.227 29.781,24.413 23.66,5.381 152.962,-23.389 192.41,-34.547 1.52,-0.43 2.587,-1.789 2.656,-3.382 l 7.728,-180.344 -598.769,94.112 z m -2.934,-5.846 h 0.009 z"
         style="fill:#010101"
         id="path8" />
    </g>
    <path
       d="M 837.555,574.831 717.49,596.549 c -24.269,0 -44.126,-19.857 -44.126,-44.126 v -62.909 c 0,-24.269 21.153,-42.517 44.126,-44.126 L 837.555,423.67 c 24.269,0 44.126,19.857 44.126,44.126 v 62.909 c 0,24.269 -16.792,40.489 -44.126,44.126 z"
       style="display:none;fill:#1e9cbb"
       id="path9" />
    <path
       d="m 1147.03,511.702 -110.613,20.009 c -22.359,0 -40.652,-18.293 -40.652,-40.652 v -57.956 c 0,-22.359 17.442,-38.688 40.652,-40.652 l 110.613,-20.009 c 22.359,0 40.652,18.293 40.652,40.652 v 57.956 c 0.151,25.418 -16.48,35.246 -40.652,40.652 z"
       style="display:none;fill:#e70f7f"
       id="path10" />
    <g
       id="g12"
       style="display:none">
      <path
         d="M 608.687,431.597 337.978,269.964 c 0,0 -22.724,-17.282 -36.556,-4.066 -12.89,12.316 -20.748,109.789 0.988,109.789 21.736,0 4.94,-64.043 35.568,-55.911 30.628,8.132 52.363,48.795 56.315,63.027 3.952,14.232 16.796,74.209 42.484,101.656 23.986,25.629 182.867,158.69 182.867,158.69 z"
         style="fill:#ffffff"
         id="path11" />
      <path
         d="m 619.645,649.292 c -1.414,0 -2.816,-0.489 -3.945,-1.434 -6.499,-5.443 -159.443,-133.596 -183.409,-159.203 -23.785,-25.414 -36.697,-76.039 -42.21,-97.656 -0.708,-2.774 -1.266,-4.965 -1.707,-6.554 -3.834,-13.807 -24.924,-51.551 -51.973,-58.733 -4.304,-1.143 -5.963,-0.05 -6.508,0.309 -4.504,2.963 -6.224,14.546 -7.605,23.853 -1.035,6.971 -2.106,14.179 -4.334,19.815 -3.967,10.033 -10.642,12.139 -15.543,12.139 -4.465,0 -10.653,-2.155 -14.769,-12.423 -7.015,-17.496 -4.796,-49.349 -3.949,-58.695 0.847,-9.341 4.321,-40.5 13.486,-49.256 16.624,-15.882 41.058,1.08 44.214,3.392 l 270.444,161.475 c 1.76,1.051 2.88,2.91 2.986,4.957 L 625.78,642.83 c 0.126,2.44 -1.206,4.724 -3.393,5.815 -0.869,0.433 -1.808,0.646 -2.741,0.646 z M 332.961,312.917 c 2.081,0 4.28,0.306 6.594,0.921 34.151,9.068 56.723,53.149 60.658,67.321 0.476,1.713 1.049,3.96 1.774,6.804 5.28,20.703 17.646,69.186 39.275,92.298 19.837,21.195 135.354,118.692 171.516,149.101 L 602.721,435.19 334.828,275.239 c -0.197,-0.118 -0.387,-0.246 -0.569,-0.385 -0.177,-0.134 -18.735,-13.932 -28.593,-4.514 -2.717,2.596 -7.535,17.182 -9.737,41.481 -2.063,22.76 -0.869,43.073 3.117,53.014 1.385,3.455 2.771,4.709 3.365,4.709 4.202,0 5.918,-9.306 7.724,-21.473 1.922,-12.944 3.909,-26.328 13.006,-32.313 2.876,-1.892 6.163,-2.841 9.821,-2.841 z"
         style="fill:#010101"
         id="path12" />
    </g>
    <path
       d="M 1205.303,950.896 867.827,787.815 c 0,0 -25.561,-17.473 -41.12,-4.111 -14.5,12.453 -23.339,111.008 1.111,111.008 24.45,0 5.557,-64.755 40.009,-56.532 34.452,8.223 49.154,55.12 60.265,78.833 20.282,43.289 54.94,59.579 83.835,87.331 26.981,25.913 187.084,123.176 187.084,123.176 l 6.292,-176.625 z"
       style="fill:#010101"
       id="path13" />
    <g
       id="g15"
       style="display:inline">
      <path
         d="M 1219.995,925.28 882.519,762.199 c 0,0 -25.561,-17.473 -41.12,-4.111 -14.5,12.453 -23.339,111.008 1.111,111.008 24.45,0 5.557,-64.755 40.009,-56.532 34.452,8.223 49.154,55.12 60.265,78.833 20.282,43.289 54.94,59.579 83.835,87.331 26.981,25.913 187.084,123.176 187.084,123.176 l 6.292,-176.625 z"
         style="fill:#ffffff"
         id="path14" />
      <path
         d="m 1213.703,1108.457 c -1.18,0 -2.359,-0.319 -3.402,-0.952 -6.563,-3.987 -161.032,-97.938 -188.221,-124.051 -8.291,-7.964 -17.325,-15.161 -26.06,-22.122 -21.735,-17.319 -44.21,-35.227 -59.169,-67.155 -1.698,-3.625 -3.466,-7.748 -5.337,-12.113 -10.293,-24.009 -24.391,-56.891 -50.516,-63.127 -5.487,-1.311 -7.61,0.1 -8.307,0.563 -4.814,3.197 -6.609,14.065 -8.193,23.653 -2.391,14.477 -5.368,32.495 -21.988,32.495 -5.303,0 -12.587,-2.599 -17.174,-14.981 -4.721,-12.742 -5.967,-34.842 -3.334,-59.116 1.274,-11.75 5.299,-39.991 15.128,-48.433 18.099,-15.541 44.74,0.829 48.641,3.377 l 337.074,162.886 c 2.339,1.13 3.789,3.536 3.697,6.132 l -6.291,176.625 c -0.083,2.323 -1.391,4.429 -3.437,5.533 -0.973,0.524 -2.042,0.785 -3.11,0.785 z M 876.894,805.295 c 2.252,0 4.636,0.299 7.146,0.898 32.531,7.765 48.771,45.643 59.517,70.709 1.827,4.262 3.553,8.288 5.16,11.717 13.658,29.151 33.968,45.333 55.47,62.466 8.969,7.146 18.242,14.536 26.971,22.919 22.394,21.507 141.572,95.124 176.397,116.467 L 1213.295,929.32 879.668,768.1 c -0.294,-0.142 -0.577,-0.306 -0.847,-0.49 -0.205,-0.139 -21.803,-14.298 -33.154,-4.55 -2.89,2.482 -8.101,16.502 -10.639,39.904 -2.388,22.019 -1.394,42.386 2.595,53.151 0.559,1.509 2.562,6.43 4.887,6.43 4.709,0 6.601,-6.64 9.06,-21.527 2.118,-12.821 4.308,-26.08 13.87,-32.432 3.3,-2.192 7.135,-3.292 11.454,-3.292 z"
         style="fill:#010101"
         id="path15" />
    </g>
    <path
       d="m 596.346,1039.316 603.428,-94.844 c 2.496,-0.392 4.727,1.599 4.619,4.124 l -7.846,183.064 c -0.183,4.276 -3.067,7.947 -7.185,9.112 -31.951,9.038 -168.543,40.751 -195.487,34.628 -30.658,-6.968 -36.433,-45.107 -54.923,-43.154 -19.893,2.102 -36.231,61.463 -50.166,67.038 -12.985,5.194 -257.539,49.138 -285.061,54.214 -1.806,0.333 -10.755,-210.075 -10.755,-210.075 -0.079,-2.027 1.373,-3.792 3.377,-4.107 z"
       style="fill:#010101"
       id="path16" />
    <path
       d="M 592.48,1041.635 321.771,880.002 c 0,0 -22.724,-17.282 -36.556,-4.066 -12.89,12.316 -20.748,109.789 0.988,109.789 21.736,0 4.94,-64.043 35.568,-55.911 30.628,8.132 52.363,48.795 56.315,63.027 3.952,14.232 16.796,74.209 42.484,101.656 23.986,25.629 182.867,158.69 182.867,158.69 z"
       style="fill:#010101"
       id="path17" />
    <g
       id="g19"
       style="display:inline">
      <path
         d="m 613.12,1021.521 603.428,-94.844 c 2.496,-0.392 4.727,1.599 4.619,4.124 l -7.846,183.064 c -0.183,4.276 -3.067,7.947 -7.185,9.112 -31.951,9.038 -168.543,40.751 -195.487,34.628 -30.658,-6.968 -36.433,-45.107 -54.923,-43.154 -19.893,2.102 -36.231,61.463 -50.166,67.038 -12.985,5.194 -257.539,49.138 -285.061,54.214 -1.806,0.333 -10.755,-210.075 -10.755,-210.075 -0.079,-2.027 1.373,-3.792 3.377,-4.107 z"
         style="fill:#ffffff"
         id="path18" />
      <path
         d="m 620.504,1241.934 c -1.41,0 -2.8,-0.477 -3.914,-1.365 q -2.77,-2.208 -4.799,-37.977 c -0.968,-17.503 -2.181,-41.793 -3.604,-72.194 -2.423,-51.746 -4.647,-103.983 -4.67,-104.504 -0.202,-5.207 3.511,-9.723 8.636,-10.528 l 603.427,-94.844 c 3.041,-0.481 6.106,0.424 8.405,2.476 2.298,2.052 3.54,4.993 3.407,8.071 l -7.846,183.064 c -0.297,6.978 -5.005,12.943 -11.713,14.841 -21.148,5.982 -143.234,35.606 -187.86,35.609 -4.369,0 -7.988,-0.283 -10.705,-0.901 -18.516,-4.208 -28.779,-18.031 -37.025,-29.137 -6.647,-8.952 -10.959,-14.418 -15.862,-13.896 -7.926,0.837 -18.62,21.481 -25.696,35.141 -9.059,17.487 -15.007,28.363 -22.81,31.484 -8.217,3.287 -86.772,18.32 -262.668,50.264 -11.381,2.067 -19.668,3.572 -23.577,4.293 -0.373,0.069 -0.749,0.103 -1.124,0.103 z m -4.45,-214.566 c 3.05,71.544 7.801,175.123 9.816,201.018 4.355,-0.794 10.155,-1.847 17.108,-3.11 165.532,-30.063 253.099,-46.742 260.267,-49.574 3.894,-1.557 11.403,-16.052 16.372,-25.645 10.254,-19.793 20.856,-40.261 35.453,-41.803 12.206,-1.297 19.821,8.953 27.178,18.861 7.387,9.95 15.76,21.227 29.781,24.413 23.66,5.381 152.962,-23.389 192.41,-34.547 1.52,-0.43 2.587,-1.789 2.656,-3.382 l 7.728,-180.344 -598.769,94.112 z m -2.934,-5.846 h 0.009 z"
         style="fill:#010101"
         id="path19" />
    </g>
    <path
       d="m 837.555,1164.831 -120.065,21.718 c -24.269,0 -44.126,-19.857 -44.126,-44.126 v -62.909 c 0,-24.269 21.153,-42.517 44.126,-44.126 l 120.065,-21.718 c 24.269,0 44.126,19.857 44.126,44.126 v 62.909 c 0,24.269 -16.792,40.489 -44.126,44.126 z"
       style="fill:#1e9cbb"
       id="path20" />
    <path
       d="m 1147.03,1101.702 -110.613,20.009 c -22.359,0 -40.652,-18.293 -40.652,-40.652 v -57.956 c 0,-22.359 17.442,-38.688 40.652,-40.652 l 110.613,-20.009 c 22.359,0 40.652,18.293 40.652,40.652 v 57.956 c 0.151,25.418 -16.48,35.246 -40.652,40.652 z"
       style="fill:#e70f7f"
       id="path21" />
    <g
       id="g23"
       style="display:inline">
      <path
         d="M 608.687,1021.597 337.978,859.964 c 0,0 -22.724,-17.282 -36.556,-4.066 -12.89,12.316 -20.748,109.789 0.988,109.789 21.736,0 4.94,-64.043 35.568,-55.911 30.628,8.132 52.363,48.795 56.315,63.027 3.952,14.232 16.796,74.209 42.484,101.656 23.986,25.629 182.867,158.69 182.867,158.69 z"
         style="fill:#ffffff"
         id="path22" />
      <path
         d="m 619.645,1239.292 c -1.414,0 -2.816,-0.489 -3.945,-1.434 -6.499,-5.443 -159.443,-133.596 -183.409,-159.203 -23.785,-25.414 -36.697,-76.039 -42.21,-97.656 -0.708,-2.774 -1.266,-4.965 -1.707,-6.554 -3.834,-13.807 -24.924,-51.551 -51.973,-58.733 -4.304,-1.143 -5.963,-0.05 -6.508,0.309 -4.504,2.963 -6.224,14.546 -7.605,23.853 -1.035,6.971 -2.106,14.179 -4.334,19.815 -3.967,10.033 -10.642,12.139 -15.543,12.139 -4.465,0 -10.653,-2.155 -14.769,-12.423 -7.015,-17.496 -4.796,-49.349 -3.949,-58.695 0.847,-9.341 4.321,-40.5 13.486,-49.256 16.624,-15.882 41.058,1.08 44.214,3.392 l 270.444,161.475 c 1.76,1.051 2.88,2.91 2.986,4.957 l 10.957,211.552 c 0.126,2.44 -1.206,4.724 -3.393,5.815 -0.869,0.433 -1.808,0.646 -2.741,0.646 z M 332.961,902.917 c 2.081,0 4.28,0.306 6.594,0.921 34.151,9.068 56.723,53.149 60.658,67.321 0.476,1.713 1.049,3.96 1.774,6.804 5.28,20.703 17.646,69.186 39.275,92.298 19.837,21.195 135.354,118.692 171.516,149.101 L 602.721,1025.19 334.828,865.239 c -0.197,-0.118 -0.387,-0.246 -0.569,-0.385 -0.177,-0.134 -18.735,-13.932 -28.593,-4.514 -2.717,2.596 -7.535,17.182 -9.737,41.481 -2.063,22.76 -0.869,43.073 3.117,53.014 1.385,3.455 2.771,4.709 3.365,4.709 4.202,0 5.918,-9.306 7.724,-21.473 1.922,-12.944 3.909,-26.328 13.006,-32.313 2.876,-1.892 6.163,-2.841 9.821,-2.841 z"
         style="fill:#010101"
         id="path23" />
    </g>
    <path
       d="M 1205.303,1540.896 867.827,1377.815 c 0,0 -25.561,-17.473 -41.12,-4.111 -14.5,12.453 -23.339,111.008 1.111,111.008 24.45,0 5.557,-64.755 40.009,-56.532 34.452,8.223 49.154,55.12 60.265,78.833 20.282,43.289 54.94,59.579 83.835,87.331 26.981,25.913 187.084,123.176 187.084,123.176 l 6.292,-176.625 z"
       style="display:none;fill:#010101"
       id="path24" />
    <g
       id="g26"
       style="display:none">
      <path
         d="M 1219.995,1515.28 882.519,1352.199 c 0,0 -25.561,-17.473 -41.12,-4.111 -14.5,12.453 -23.339,111.008 1.111,111.008 24.45,0 5.557,-64.755 40.009,-56.532 34.452,8.223 49.154,55.12 60.265,78.833 20.282,43.289 54.94,59.579 83.835,87.331 26.981,25.913 187.084,123.176 187.084,123.176 l 6.292,-176.625 z"
         style="fill:#ffffff"
         id="path25" />
      <path
         d="m 1213.703,1698.457 c -1.18,0 -2.359,-0.319 -3.402,-0.952 -6.563,-3.987 -161.032,-97.938 -188.221,-124.051 -8.291,-7.964 -17.325,-15.161 -26.06,-22.122 -21.735,-17.319 -44.21,-35.227 -59.169,-67.155 -1.698,-3.625 -3.466,-7.748 -5.337,-12.113 -10.293,-24.009 -24.391,-56.891 -50.516,-63.127 -5.487,-1.311 -7.61,0.1 -8.307,0.563 -4.814,3.197 -6.609,14.065 -8.193,23.653 -2.391,14.477 -5.368,32.495 -21.988,32.495 -5.303,0 -12.587,-2.599 -17.174,-14.981 -4.721,-12.742 -5.967,-34.842 -3.334,-59.116 1.274,-11.75 5.299,-39.991 15.128,-48.433 18.099,-15.541 44.74,0.829 48.641,3.377 l 337.074,162.886 c 2.339,1.13 3.789,3.536 3.697,6.132 l -6.291,176.625 c -0.083,2.323 -1.391,4.429 -3.437,5.533 -0.973,0.524 -2.042,0.785 -3.11,0.785 z M 876.894,1395.295 c 2.252,0 4.636,0.299 7.146,0.898 32.531,7.765 48.771,45.643 59.517,70.709 1.827,4.262 3.553,8.288 5.16,11.717 13.658,29.151 33.968,45.333 55.47,62.466 8.969,7.146 18.242,14.536 26.971,22.919 22.394,21.507 141.572,95.124 176.397,116.467 l 5.74,-161.151 -333.627,-161.22 c -0.294,-0.142 -0.577,-0.306 -0.847,-0.49 -0.205,-0.139 -21.803,-14.298 -33.154,-4.55 -2.89,2.482 -8.101,16.502 -10.639,39.904 -2.388,22.019 -1.394,42.386 2.595,53.151 0.559,1.509 2.562,6.43 4.887,6.43 4.709,0 6.601,-6.64 9.06,-21.527 2.118,-12.821 4.308,-26.08 13.87,-32.432 3.3,-2.192 7.135,-3.292 11.454,-3.292 z"
         style="fill:#010101"
         id="path26" />
    </g>
    <path
       d="m 596.346,1629.316 603.428,-94.844 c 2.496,-0.392 4.727,1.599 4.619,4.124 l -7.846,183.064 c -0.183,4.276 -3.067,7.947 -7.185,9.112 -31.951,9.038 -168.543,40.751 -195.487,34.628 -30.658,-6.968 -36.433,-45.107 -54.923,-43.154 -19.893,2.102 -36.231,61.463 -50.166,67.038 -12.985,5.194 -257.539,49.138 -285.061,54.214 -1.806,0.333 -10.755,-210.075 -10.755,-210.075 -0.079,-2.027 1.373,-3.792 3.377,-4.107 z"
       style="display:none;fill:#010101"
       id="path27" />
    <path
       d="M 592.48,1631.635 321.771,1470.002 c 0,0 -22.724,-17.282 -36.556,-4.066 -12.89,12.316 -20.748,109.789 0.988,109.789 21.736,0 4.94,-64.043 35.568,-55.911 30.628,8.132 52.363,48.795 56.315,63.027 3.952,14.232 16.796,74.209 42.484,101.656 23.986,25.629 182.867,158.69 182.867,158.69 z"
       style="display:none;fill:#010101"
       id="path28" />
    <g
       id="g30"
       style="display:none">
      <path
         d="m 613.12,1611.521 603.428,-94.844 c 2.496,-0.392 4.727,1.599 4.619,4.124 l -7.846,183.064 c -0.183,4.276 -3.067,7.947 -7.185,9.112 -31.951,9.038 -168.543,40.751 -195.487,34.628 -30.658,-6.968 -36.433,-45.107 -54.923,-43.154 -19.893,2.102 -36.231,61.463 -50.166,67.038 -12.985,5.194 -257.539,49.138 -285.061,54.214 -1.806,0.333 -10.755,-210.075 -10.755,-210.075 -0.079,-2.027 1.373,-3.792 3.377,-4.107 z"
         style="fill:#ffffff"
         id="path29" />
      <path
         d="m 620.504,1831.934 c -1.41,0 -2.8,-0.477 -3.914,-1.365 q -2.77,-2.208 -4.799,-37.977 c -0.968,-17.503 -2.181,-41.793 -3.604,-72.194 -2.423,-51.746 -4.647,-103.983 -4.67,-104.504 -0.202,-5.207 3.511,-9.723 8.636,-10.528 l 603.427,-94.844 c 3.041,-0.481 6.106,0.424 8.405,2.476 2.298,2.052 3.54,4.993 3.407,8.071 l -7.846,183.064 c -0.297,6.978 -5.005,12.943 -11.713,14.841 -21.148,5.982 -143.234,35.606 -187.86,35.609 -4.369,0 -7.988,-0.283 -10.705,-0.901 -18.516,-4.208 -28.779,-18.031 -37.025,-29.137 -6.647,-8.952 -10.959,-14.418 -15.862,-13.896 -7.926,0.837 -18.62,21.481 -25.696,35.141 -9.059,17.487 -15.007,28.363 -22.81,31.484 -8.217,3.287 -86.772,18.32 -262.668,50.264 -11.381,2.067 -19.668,3.572 -23.577,4.293 -0.373,0.069 -0.749,0.103 -1.124,0.103 z m -4.45,-214.566 c 3.05,71.544 7.801,175.123 9.816,201.018 4.355,-0.794 10.155,-1.847 17.108,-3.11 165.532,-30.063 253.099,-46.742 260.267,-49.574 3.894,-1.557 11.403,-16.052 16.372,-25.645 10.254,-19.793 20.856,-40.261 35.453,-41.803 12.206,-1.297 19.821,8.953 27.178,18.861 7.387,9.95 15.76,21.227 29.781,24.413 23.66,5.381 152.962,-23.389 192.41,-34.547 1.52,-0.43 2.587,-1.789 2.656,-3.382 l 7.728,-180.344 -598.769,94.112 z m -2.934,-5.846 h 0.009 z"
         style="fill:#010101"
         id="path30" />
    </g>
    <path
       d="m 837.555,1754.831 -120.065,21.718 c -24.269,0 -44.126,-19.857 -44.126,-44.126 v -62.909 c 0,-24.269 21.153,-42.517 44.126,-44.126 l 120.065,-21.718 c 24.269,0 44.126,19.857 44.126,44.126 v 62.909 c 0,24.269 -16.792,40.489 -44.126,44.126 z"
       style="display:none;fill:#1e9cbb"
       id="path31" />
    <path
       d="m 1147.03,1691.702 -110.613,20.009 c -22.359,0 -40.652,-18.293 -40.652,-40.652 v -57.956 c 0,-22.359 17.442,-38.688 40.652,-40.652 l 110.613,-20.009 c 22.359,0 40.652,18.293 40.652,40.652 v 57.956 c 0.151,25.418 -16.48,35.246 -40.652,40.652 z"
       style="display:none;fill:#e70f7f"
       id="path32" />
    <g
       id="g34"
       style="display:none">
      <path
         d="M 608.687,1611.597 337.978,1449.964 c 0,0 -22.724,-17.282 -36.556,-4.066 -12.89,12.316 -20.748,109.789 0.988,109.789 21.736,0 4.94,-64.043 35.568,-55.911 30.628,8.132 52.363,48.795 56.315,63.027 3.952,14.232 16.796,74.209 42.484,101.656 23.986,25.629 182.867,158.69 182.867,158.69 z"
         style="fill:#ffffff"
         id="path33" />
      <path
         d="m 619.645,1829.292 c -1.414,0 -2.816,-0.489 -3.945,-1.434 -6.499,-5.443 -159.443,-133.596 -183.409,-159.203 -23.785,-25.414 -36.697,-76.039 -42.21,-97.656 -0.708,-2.774 -1.266,-4.965 -1.707,-6.554 -3.834,-13.807 -24.924,-51.551 -51.973,-58.733 -4.304,-1.143 -5.963,-0.05 -6.508,0.309 -4.504,2.963 -6.224,14.546 -7.605,23.853 -1.035,6.971 -2.106,14.179 -4.334,19.815 -3.967,10.033 -10.642,12.139 -15.543,12.139 -4.465,0 -10.653,-2.155 -14.769,-12.423 -7.015,-17.496 -4.796,-49.349 -3.949,-58.695 0.847,-9.341 4.321,-40.5 13.486,-49.256 16.624,-15.882 41.058,1.08 44.214,3.392 l 270.444,161.475 c 1.76,1.051 2.88,2.91 2.986,4.957 l 10.957,211.552 c 0.126,2.44 -1.206,4.724 -3.393,5.815 -0.869,0.433 -1.808,0.646 -2.741,0.646 z M 332.961,1492.917 c 2.081,0 4.28,0.306 6.594,0.921 34.151,9.068 56.723,53.149 60.658,67.321 0.476,1.713 1.049,3.96 1.774,6.804 5.28,20.703 17.646,69.186 39.275,92.298 19.837,21.195 135.354,118.692 171.516,149.101 L 602.721,1615.19 334.828,1455.239 c -0.197,-0.118 -0.387,-0.246 -0.569,-0.385 -0.177,-0.134 -18.735,-13.932 -28.593,-4.514 -2.717,2.596 -7.535,17.182 -9.737,41.481 -2.063,22.76 -0.869,43.073 3.117,53.014 1.385,3.455 2.771,4.709 3.365,4.709 4.202,0 5.918,-9.306 7.724,-21.473 1.922,-12.944 3.909,-26.328 13.006,-32.313 2.876,-1.892 6.163,-2.841 9.821,-2.841 z"
         style="fill:#010101"
         id="path34" />
    </g>
  </g>
</svg>
