<?xml version="1.0" encoding="UTF-8" standalone="no"?>
<svg
   id="Layer_1"
   version="1.1"
   viewBox="0 0 500 500"
   sodipodi:docname="nik-szzk5Q3YRjM-unsplash.svg"
   width="500"
   height="500"
   inkscape:version="1.4.2 (ebf0e940, 2025-05-08)"
   xmlns:inkscape="http://www.inkscape.org/namespaces/inkscape"
   xmlns:sodipodi="http://sodipodi.sourceforge.net/DTD/sodipodi-0.dtd"
   xmlns="http://www.w3.org/2000/svg"
   xmlns:svg="http://www.w3.org/2000/svg">
  <sodipodi:namedview
     id="namedview46"
     pagecolor="#505050"
     bordercolor="#eeeeee"
     borderopacity="1"
     inkscape:showpageshadow="0"
     inkscape:pageopacity="0"
     inkscape:pagecheckerboard="0"
     inkscape:deskcolor="#505050"
     inkscape:zoom="0.42866678"
     inkscape:cx="250.77754"
     inkscape:cy="169.12904"
     inkscape:window-width="1280"
     inkscape:window-height="772"
     inkscape:window-x="0"
     inkscape:window-y="28"
     inkscape:window-maximized="0"
     inkscape:current-layer="Layer_1" />
  <!-- Generator: Adobe Illustrator 30.0.0, SVG Export Plug-In . SVG Version: 2.1.1 Build 123)  -->
  <defs
     id="defs1">
    <clipPath
       id="clippath">
      <rect
         width="2000"
         height="1500"
         style="fill:none"
         id="rect1"
         x="0"
         y="0" />
    </clipPath>
  </defs>
  <g
     clip-path="url(#clippath)"
     id="g46"
     transform="matrix(0.28568282,0,0,0.28568282,-24.631626,46.184296)">
    <rect
       x="-28.004999"
       y="-13.786"
       width="2063.5549"
       height="1540.401"
       style="display:none;fill:#f9f9f2"
       id="rect2" />
    <path
       d="m 819.807,570.5 c 130.987,-28.268 257.694,-68.956 388.554,-97.34 60.62,-13.149 121.24,-26.298 181.86,-39.447 46.803,-10.152 93.032,-25.651 139.183,-9.036 98.8,35.567 136.374,158.783 134.597,253.191 -0.982,52.192 -2.254,95.775 -51.542,123.943 -52.491,29.999 -111.254,42.521 -167.715,60.867 -99.629,32.372 -207.905,58.277 -310.691,80.451 -193.973,41.847 -387.107,83.983 -580.105,125.829 -84.918,18.412 -197.847,45.964 -253.051,-42.263 C 255.966,954.886 221.782,856.317 239.774,771.284 261.067,670.644 637.676,609.806 819.807,570.501 Z"
       style="fill:#caf42b"
       id="path2" />
    <path
       d="m 864.846,502.308 c 68.764,-14.874 136.701,-33.198 204.642,-51.39 68.415,-18.319 136.937,-35.761 206.16,-50.776 34.824,-7.554 69.649,-15.107 104.473,-22.661 34.551,-7.494 68.974,-15.912 103.627,-22.885 31.991,-6.438 64.503,-8.143 95.022,5.256 20.92,9.185 39.309,22.98 54.661,39.834 31.62,34.713 49.531,80.421 58.717,125.926 4.479,22.19 6.801,44.788 6.974,67.425 0.179,23.415 0.209,47.987 -5.439,70.843 -5.635,22.803 -18.836,41.053 -38.909,53.365 -27.472,16.85 -58.408,27.933 -88.983,37.643 -31.342,9.954 -62.959,19.018 -94.315,28.939 -32.628,10.323 -65.52,19.804 -98.567,28.69 -66.179,17.796 -132.974,33.202 -199.955,47.655 -70.533,15.219 -141.054,30.494 -211.568,45.797 -70.696,15.342 -141.386,30.71 -212.078,46.069 -63.374,13.769 -126.649,28.184 -190.186,41.184 -44.46,9.097 -92.624,17.348 -137.384,5.617 -21.52,-5.64 -41.086,-16.477 -56.396,-32.733 -8.835,-9.38 -15.559,-20.221 -22.035,-31.303 -7.534,-12.893 -14.465,-26.141 -20.764,-39.68 -25.034,-53.813 -41.351,-114.517 -35.776,-174.23 0.913,-9.775 1.957,-20.14 5.302,-29.444 0.214,-0.596 0.448,-1.183 0.677,-1.773 0.162,-0.417 -0.616,1.293 0.069,-0.135 0.605,-1.262 1.201,-2.521 1.871,-3.75 1.255,-2.302 2.664,-4.519 4.185,-6.654 0.35,-0.492 0.71,-0.976 1.069,-1.462 0.525,-0.711 -0.262,0.327 -0.303,0.38 0.252,-0.324 0.506,-0.651 0.768,-0.968 0.938,-1.135 1.877,-2.267 2.857,-3.366 1.983,-2.225 4.075,-4.353 6.242,-6.4 5.107,-4.825 9.318,-8.133 14.269,-11.66 27.883,-19.864 60.267,-33.326 92.231,-45.07 41.347,-15.192 83.804,-27.307 126.436,-38.304 45.948,-11.852 92.258,-22.262 138.67,-32.119 43.405,-9.218 86.923,-17.886 130.403,-26.745 17.795,-3.626 35.584,-7.288 53.337,-11.116 9.902,-2.135 5.712,-17.319 -4.186,-15.185 -40.224,8.673 -80.605,16.606 -120.924,24.824 -46.908,9.562 -93.77,19.378 -140.399,30.224 -46.125,10.729 -92.09,22.372 -137.34,36.374 -38.45,11.897 -76.888,25.306 -112.802,43.642 -24.663,12.592 -51.419,28.525 -66.377,52.682 -9.711,15.684 -11.236,35.322 -12.365,53.274 -1.93,30.675 1.822,61.665 8.943,91.497 7.245,30.351 18.223,59.794 31.668,87.927 11.957,25.018 25.338,51.604 44.96,71.565 34.324,34.917 83.967,43.282 131.01,40.401 53.541,-3.279 106.362,-17.55 158.586,-28.884 71.94,-15.612 143.875,-31.251 215.811,-46.88 72.059,-15.656 144.119,-31.302 216.19,-46.903 70.031,-15.159 140.189,-29.809 209.881,-46.48 68.05,-16.278 135.692,-34.365 202.28,-55.902 31.736,-10.264 64.03,-18.739 95.617,-29.47 16.025,-5.444 31.851,-11.508 47.25,-18.541 13.985,-6.388 28.106,-13.333 40.345,-22.729 19.523,-14.989 31.754,-35.957 36.843,-59.916 5.093,-23.978 5.396,-49.415 4.996,-73.842 -0.791,-48.334 -10.693,-97.14 -30.944,-141.134 -19.95,-43.341 -52.288,-82.559 -96.575,-102.335 -14.821,-6.618 -30.16,-10.886 -46.367,-12.284 -17.104,-1.476 -34.312,0.341 -51.171,3.258 -17.543,3.035 -34.8,7.469 -52.156,11.391 -17.627,3.983 -35.32,7.694 -52.981,11.524 -71.128,15.428 -142.507,29.979 -213.136,47.591 -69.749,17.392 -138.927,36.967 -208.567,54.78 -33.955,8.685 -68.022,16.935 -102.279,24.345 -9.9,2.141 -5.711,17.326 4.186,15.185 z"
       id="path3" />
    <path
       d="m 378.315,713.796 c 16.261,0 16.288,-25.272 0,-25.272 -16.288,0 -16.288,25.272 0,25.272 z"
       id="path4" />
    <path
       d="m 475.76,749.598 c 16.261,0 16.288,-25.272 0,-25.272 -16.288,0 -16.288,25.272 0,25.272 z"
       id="path5" />
    <path
       d="m 403.151,815.169 c 16.261,0 16.288,-25.272 0,-25.272 -16.288,0 -16.288,25.272 0,25.272 z"
       id="path6" />
    <path
       d="m 462.679,918.981 c 16.261,0 16.288,-25.272 0,-25.272 -16.288,0 -16.288,25.272 0,25.272 z"
       id="path7" />
    <path
       d="m 575.992,890.132 c 16.261,0 16.288,-25.272 0,-25.272 -16.288,0 -16.288,25.272 0,25.272 z"
       id="path8" />
    <path
       d="m 539.266,812.69 c 16.261,0 16.288,-25.272 0,-25.272 -16.288,0 -16.288,25.272 0,25.272 z"
       id="path9" />
    <path
       d="m 532.069,654.823 c 16.261,0 16.288,-25.272 0,-25.272 -16.288,0 -16.288,25.272 0,25.272 z"
       id="path10" />
    <path
       d="m 621.506,752.148 c 16.261,0 16.288,-25.272 0,-25.272 -16.288,0 -16.288,25.272 0,25.272 z"
       id="path11" />
    <path
       d="m 670.733,893.781 c 16.261,0 16.288,-25.272 0,-25.272 -16.288,0 -16.288,25.272 0,25.272 z"
       id="path12" />
    <path
       d="m 658.848,648.676 c 16.261,0 16.288,-25.272 0,-25.272 -16.288,0 -16.288,25.272 0,25.272 z"
       id="path13" />
    <path
       d="m 714.577,787.476 c 16.261,0 16.288,-25.272 0,-25.272 -16.288,0 -16.288,25.272 0,25.272 z"
       id="path14" />
    <path
       d="m 1626.332,653.054 c 16.261,0 16.288,-25.272 0,-25.272 -16.288,0 -16.288,25.272 0,25.272 z"
       id="path15" />
    <path
       d="m 1528.887,617.251 c 16.261,0 16.288,-25.272 0,-25.272 -16.288,0 -16.288,25.272 0,25.272 z"
       id="path16" />
    <path
       d="m 1601.496,551.681 c 16.261,0 16.288,-25.272 0,-25.272 -16.288,0 -16.288,25.272 0,25.272 z"
       id="path17" />
    <path
       d="m 1541.968,447.869 c 16.261,0 16.288,-25.272 0,-25.272 -16.288,0 -16.288,25.272 0,25.272 z"
       id="path18" />
    <path
       d="m 1428.655,476.717 c 16.261,0 16.288,-25.272 0,-25.272 -16.288,0 -16.288,25.272 0,25.272 z"
       id="path19" />
    <path
       d="m 1465.381,554.159 c 16.261,0 16.288,-25.272 0,-25.272 -16.288,0 -16.288,25.272 0,25.272 z"
       id="path20" />
    <path
       d="m 1472.578,712.027 c 16.261,0 16.288,-25.272 0,-25.272 -16.288,0 -16.288,25.272 0,25.272 z"
       id="path21" />
    <path
       d="m 1383.141,614.702 c 16.261,0 16.288,-25.272 0,-25.272 -16.288,0 -16.288,25.272 0,25.272 z"
       id="path22" />
    <path
       d="m 1333.914,473.068 c 16.261,0 16.288,-25.272 0,-25.272 -16.288,0 -16.288,25.272 0,25.272 z"
       id="path23" />
    <path
       d="m 1345.799,718.174 c 16.261,0 16.288,-25.272 0,-25.272 -16.288,0 -16.288,25.272 0,25.272 z"
       id="path24" />
    <path
       d="m 1290.07,579.374 c 16.261,0 16.288,-25.272 0,-25.272 -16.288,0 -16.288,25.272 0,25.272 z"
       id="path25" />
    <path
       d="m 763.495,593.071 c 4.876,-6.058 10.125,-10.59 17.544,-13.381 9.434,-3.549 19.786,-5.351 29.604,-7.545 22.296,-4.981 44.734,-9.323 67.179,-13.572 47.821,-9.055 95.827,-17.25 143.457,-27.286 29.825,-6.284 59.761,-12.418 89.429,-19.4 19.046,-4.482 43.513,-15.416 60.809,-1.9 12.976,10.14 19.813,27.748 24.598,43.205 5.728,18.504 9.099,37.616 12.747,56.607 4.443,23.13 11.357,45.584 18.001,68.161 4.476,15.211 8.933,30.431 12.987,45.761 3.523,13.323 7.465,26.949 9.277,40.637 1.111,8.39 0.988,17.429 -4.605,24.296 -7.218,8.861 -19.927,13.548 -30.328,17.325 -27.155,9.859 -55.845,15.776 -83.587,23.773 -30.773,8.871 -61.401,18.244 -92.263,26.803 -30.192,8.374 -60.597,13.961 -91.749,17.295 -14.832,1.587 -29.755,2.445 -44.566,4.178 -13.41,1.569 -26.954,4.709 -40.528,3.513 -23.707,-2.09 -35.231,-25.439 -43.483,-44.909 -13.156,-31.045 -21.535,-64.498 -30.391,-96.943 -5.996,-21.966 -11.672,-44.024 -16.842,-66.2 -2.348,-10.071 -4.589,-20.167 -6.646,-30.301 -2.057,-10.134 -4.667,-20.685 -4.819,-31.104 -0.068,-4.666 0.352,-9.22 1.759,-13.684 0.654,-2.072 0.645,-2.081 1.423,-3.502 0.326,-0.596 2.507,-3.747 0.991,-1.824 2.63,-3.337 3.256,-7.879 0,-11.135 -2.733,-2.733 -8.488,-3.358 -11.135,0 -13.256,16.818 -8.432,39.674 -4.687,58.98 4.322,22.281 9.576,44.383 15.143,66.383 10.065,39.776 20.68,79.736 34.219,118.496 6.322,18.1 13.93,36.692 26.236,51.58 8.008,9.688 18.89,16.909 31.399,19.049 14.184,2.427 28.369,0 42.444,-1.999 15.144,-2.151 30.52,-2.861 45.736,-4.434 16.017,-1.656 32.015,-3.65 47.893,-6.344 32.633,-5.535 64.343,-15.308 96.047,-24.632 31.47,-9.256 62.903,-18.626 94.642,-26.926 13.759,-3.598 27.561,-7.242 40.84,-12.385 12.026,-4.658 25.28,-10.242 33.767,-20.377 16.673,-19.909 7.013,-48.244 1.386,-70.549 -7.995,-31.696 -18.013,-62.829 -26.739,-94.322 -10.478,-37.817 -11.943,-79.017 -31.053,-114.069 -9.376,-17.198 -24.557,-31.918 -45.126,-32.601 -13.255,-0.44 -26.541,3.358 -39.239,6.693 -14.614,3.838 -29.47,6.744 -44.234,9.946 -52.974,11.49 -106.03,22.01 -159.332,31.862 -25.432,4.701 -50.865,9.409 -76.215,14.534 -10.887,2.201 -21.759,4.48 -32.59,6.942 -10.831,2.462 -21.991,4.576 -32.082,9.25 -7.433,3.443 -13.368,8.603 -18.455,14.924 -2.664,3.31 -3.235,7.901 0,11.135 2.758,2.758 8.455,3.33 11.135,0 z"
       id="path26" />
    <g
       id="g28">
      <path
         d="m 849.246,703.601 c 4.621,21.305 9.242,42.609 13.863,63.914"
         style="fill:#ffffff"
         id="path27" />
      <path
         d="m 841.654,705.694 c 4.621,21.305 9.242,42.609 13.863,63.914 2.147,9.899 17.332,5.71 15.185,-4.186 -4.621,-21.305 -9.242,-42.609 -13.863,-63.914 -2.147,-9.899 -17.332,-5.71 -15.185,4.186 z"
         id="path28" />
    </g>
    <g
       id="g30">
      <path
         d="m 869.277,687.502 c 15.99,-10.337 44.689,-12.128 63.743,-16.318"
         style="fill:#ffffff"
         id="path29" />
      <path
         d="m 873.251,694.301 c 17.988,-11.229 41.643,-11.179 61.862,-15.524 9.903,-2.128 5.712,-17.313 -4.186,-15.185 -21.763,4.677 -46.227,5.003 -65.624,17.112 -8.578,5.355 -0.682,18.985 7.948,13.598 v 0 z"
         id="path30" />
    </g>
    <g
       id="g32">
      <path
         d="m 892.545,648.647 c 17.04,52.335 15.288,53.16 26.977,107.047"
         style="fill:#ffffff"
         id="path31" />
      <path
         d="m 884.952,650.74 c 5.685,17.486 11.304,35.026 15.495,52.942 4.191,17.916 7.582,36.09 11.482,54.105 2.143,9.9 17.328,5.711 15.185,-4.186 -3.9,-18.015 -7.283,-36.157 -11.482,-54.105 -4.199,-17.948 -9.81,-35.455 -15.495,-52.942 -3.12,-9.597 -18.331,-5.49 -15.185,4.186 z"
         id="path32" />
    </g>
    <path
       d="m 973.308,657.719 c -12.862,2.935 -26.356,8.342 -26.906,23.65 -0.242,6.738 2.032,13.801 7.817,17.691 4.643,3.122 10.446,3.603 15.893,3.26 5.367,-0.338 10.836,-1.607 16.228,-1.171 0.88,0.071 3.519,0.797 4.17,1.093 1.302,0.594 2.131,1.648 2.495,2.214 1.173,1.823 1.413,5.026 0.912,7.614 -0.863,4.466 -2.19,7.423 -4.925,11.275 -5.044,7.105 -13.241,11.479 -21.571,7.43 -9.077,-4.412 -17.071,9.163 -7.948,13.598 10.546,5.126 22.363,4.835 32.149,-1.961 8.671,-6.021 15.45,-15.713 17.48,-26.156 1.988,-10.231 -0.353,-21.109 -9.632,-27.009 -10.299,-6.549 -21.714,-2.36 -32.908,-2.578 -1.298,-0.025 -1.579,0.091 -2.928,-0.37 -0.724,-0.247 -0.955,-0.669 -0.723,-0.285 -0.661,-1.095 -1.249,-4.241 -0.479,-6.229 1.928,-4.981 10.601,-5.862 15.061,-6.88 9.876,-2.253 5.696,-17.44 -4.186,-15.185 v 0 z"
       id="path33" />
    <g
       id="g35">
      <path
         d="m 941.304,614.857 c 4.693,6.128 11.183,16.056 6.352,23.542"
         style="fill:#ffffff"
         id="path34" />
      <path
         d="m 934.505,618.831 c 2.652,3.511 9.01,10.832 6.352,15.593 -4.945,8.858 8.652,16.808 13.598,7.948 6.104,-10.933 0.491,-22.43 -6.352,-31.49 -2.559,-3.388 -6.795,-5.151 -10.773,-2.825 -3.337,1.952 -5.403,7.359 -2.825,10.773 v 0 z"
         id="path35" />
    </g>
    <path
       d="m 1044.551,633.183 c -7.468,18.704 -11.67,38.889 -3.751,58.252 6.009,14.695 20.433,24.856 36.168,26.244 15.569,1.373 31.922,-8.168 35.468,-23.971 3.399,-15.147 -2.589,-32.155 -11.707,-44.247 -6.085,-8.069 -14.214,-14.37 -23.94,-17.389 -9.846,-3.056 -20.328,-2.09 -30.259,-0.057 -9.931,2.033 -5.722,17.214 4.186,15.185 13.122,-2.686 25.625,-1.43 35.14,8.838 6.901,7.447 11.745,18.699 11.786,28.885 0.042,10.501 -7.914,17.341 -18.277,17.147 -9.816,-0.184 -19.576,-6.672 -23.655,-15.586 -7.36,-16.082 -2.139,-33.674 4.027,-49.116 1.577,-3.951 -1.723,-8.648 -5.499,-9.686 -4.485,-1.232 -8.103,1.534 -9.686,5.499 v 0 z"
       id="path36" />
    <g
       id="g38">
      <path
         d="m 1111.689,615.136 c 9.052,26.823 16.156,53.422 22.155,81.078"
         style="fill:#ffffff"
         id="path37" />
      <path
         d="m 1104.097,617.229 c 8.932,26.59 16.181,53.676 22.155,81.078 2.158,9.897 17.342,5.709 15.185,-4.186 -5.974,-27.401 -13.223,-54.488 -22.155,-81.078 -3.21,-9.557 -18.425,-5.459 -15.185,4.186 z"
         id="path38" />
    </g>
    <path
       d="m 1141.627,605.021 c -8.302,15.168 -12.456,33.069 -22.979,46.967 -3.322,4.387 0.474,10.031 4.706,11.567 8.473,3.076 16.285,8.447 23.833,13.278 8.039,5.145 15.909,10.594 24.189,15.351 8.803,5.057 16.744,-8.545 7.948,-13.598 -17.23,-9.897 -32.937,-23.375 -51.783,-30.216 l 4.706,11.567 c 10.523,-13.897 14.676,-31.799 22.979,-46.967 4.868,-8.894 -8.725,-16.85 -13.598,-7.948 v 0 z"
       id="path39" />
    <path
       d="m 840.993,680.947 c 10.133,0 10.15,-15.748 0,-15.748 -10.15,0 -10.15,15.748 0,15.748 z"
       id="path40" />
    <path
       d="m 1580.758,284.234 c 4.718,-19.503 7.087,-40.173 5.566,-60.222 -0.762,-10.042 -16.516,-10.125 -15.748,0 1.421,18.727 -0.595,37.812 -5.003,56.035 -2.382,9.847 12.8,14.048 15.185,4.186 v 0 z"
       id="path41" />
    <path
       d="m 1623.651,300.919 c 17.196,-19.09 39.91,-32.567 54.075,-54.438 5.526,-8.531 -8.102,-16.434 -13.598,-7.948 -13.303,20.539 -35.419,33.274 -51.613,51.25 -6.767,7.513 4.335,18.685 11.135,11.135 v 0 z"
       id="path42" />
    <path
       d="m 1659.809,339.935 c 23.715,-5.53 45.032,-18.103 68.697,-23.78 9.85,-2.363 5.68,-17.552 -4.186,-15.185 -23.665,5.677 -44.982,18.249 -68.697,23.78 -9.866,2.301 -5.689,17.488 4.186,15.185 z"
       id="path43" />
    <path
       d="m 371.3,1151.972 c -4.718,19.503 -7.087,40.173 -5.566,60.222 0.762,10.042 16.516,10.125 15.748,0 -1.421,-18.727 0.595,-37.812 5.003,-56.035 2.382,-9.847 -12.8,-14.048 -15.185,-4.186 v 0 z"
       id="path44" />
    <path
       d="m 330.661,1134.17 c -17.196,19.09 -39.91,32.567 -54.075,54.438 -5.526,8.531 8.102,16.434 13.598,7.948 13.303,-20.539 35.419,-33.274 51.613,-51.25 6.767,-7.513 -4.335,-18.685 -11.135,-11.135 v 0 z"
       id="path45" />
    <path
       d="m 294.502,1095.154 c -23.715,5.53 -45.032,18.103 -68.697,23.78 -9.85,2.363 -5.68,17.552 4.186,15.185 23.665,-5.677 44.982,-18.249 68.697,-23.78 9.866,-2.301 5.689,-17.488 -4.186,-15.185 z"
       id="path46" />
  </g>
</svg>
